<?xml version="1.0" encoding="UTF-8" standalone="no"?>
<!-- Created with Inkscape (http://www.inkscape.org/) -->

<svg
   xmlns:dc="http://purl.org/dc/elements/1.1/"
   xmlns:cc="http://creativecommons.org/ns#"
   xmlns:rdf="http://www.w3.org/1999/02/22-rdf-syntax-ns#"
   xmlns:svg="http://www.w3.org/2000/svg"
   xmlns="http://www.w3.org/2000/svg"
   xmlns:sodipodi="http://sodipodi.sourceforge.net/DTD/sodipodi-0.dtd"
   xmlns:inkscape="http://www.inkscape.org/namespaces/inkscape"
   width="90"
   height="380"
   viewBox="0 0 23.812501 100.54167"
   version="1.1"
   id="svg8"
   inkscape:version="0.92.2 (5c3e80d, 2017-08-06)"
   sodipodi:docname="Evaluator.svg">
  <defs
     id="defs2" />
  <sodipodi:namedview
     id="base"
     pagecolor="#ffffff"
     bordercolor="#666666"
     borderopacity="1.0"
     inkscape:pageopacity="0.0"
     inkscape:pageshadow="2"
     inkscape:zoom="1.4"
     inkscape:cx="-28.368921"
     inkscape:cy="188.85536"
     inkscape:document-units="mm"
     inkscape:current-layer="layer1"
     showgrid="false"
     units="px"
     inkscape:snap-bbox="true"
     inkscape:snap-page="true"
     inkscape:bbox-nodes="true"
     inkscape:snap-bbox-edge-midpoints="true"
     inkscape:window-width="1366"
     inkscape:window-height="719"
     inkscape:window-x="0"
     inkscape:window-y="23"
     inkscape:window-maximized="0" />
  <metadata
     id="metadata5">
    <rdf:RDF>
      <cc:Work
         rdf:about="">
        <dc:format>image/svg+xml</dc:format>
        <dc:type
           rdf:resource="http://purl.org/dc/dcmitype/StillImage" />
        <dc:title />
      </cc:Work>
    </rdf:RDF>
  </metadata>
  <g
     inkscape:label="Layer 1"
     inkscape:groupmode="layer"
     id="layer1"
     transform="translate(0,-196.45832)">
    <path
       style="opacity:1;vector-effect:none;fill:#f0f0f0;fill-opacity:1;fill-rule:evenodd;stroke:none;stroke-width:0.48607069;stroke-linecap:butt;stroke-linejoin:round;stroke-miterlimit:4;stroke-dasharray:none;stroke-dashoffset:0;stroke-opacity:1;paint-order:normal"
       d="M 0,196.45832 H 23.8125 V 297 H 0 Z"
       id="rect817"
       inkscape:connector-curvature="0" />
    <g
       aria-label="evaluator"
       style="font-style:normal;font-variant:normal;font-weight:normal;font-stretch:normal;font-size:3.88055563px;line-height:1.25;font-family:'Gill Sans';-inkscape-font-specification:'Gill Sans';letter-spacing:0px;word-spacing:0px;fill:#000000;fill-opacity:1;stroke:none;stroke-width:0.26458332"
       id="text134">
      <path
         d="m 5.2790675,203.21729 c 0,-0.60995 -0.4265083,-1.04105 -1.031875,-1.04105 -0.6053666,0 -1.1052527,0.44027 -1.1052527,1.12819 0,0.6925 0.4448527,1.14194 1.0914944,1.14194 0.6512278,0 0.9309805,-0.32103 0.9584972,-0.34396 L 5.008487,203.85017 c -0.050447,0.0321 -0.3118556,0.25224 -0.7200195,0.25224 -0.4035777,0 -0.6787444,-0.26141 -0.701675,-0.6925 h 1.6785167 c 0,0 0.013758,-0.11007 0.013758,-0.19262 z m -1.6876889,-0.1009 c 0.013758,-0.2614 0.206375,-0.62371 0.6420556,-0.62371 0.4402667,0 0.6237111,0.38065 0.6282972,0.62371 z"
         style="font-style:normal;font-variant:normal;font-weight:normal;font-stretch:normal;font-size:4.58611107px;font-family:Gibson;-inkscape-font-specification:Gibson;stroke-width:0.26458332"
         id="path4727" />
      <path
         d="M 7.1653206,202.21752 6.523265,203.85934 5.8766234,202.21752 H 5.4180123 l 0.90805,2.1784 h 0.3852333 l 0.90805,-2.1784 z"
         style="font-style:normal;font-variant:normal;font-weight:normal;font-stretch:normal;font-size:4.58611107px;font-family:Gibson;-inkscape-font-specification:Gibson;stroke-width:0.26458332"
         id="path4729" />
      <path
         d="m 9.6208247,203.13015 c 0,-0.37147 -0.087136,-0.55492 -0.2338916,-0.70626 -0.1467556,-0.14675 -0.3577167,-0.24765 -0.7200195,-0.24765 -0.3623027,0 -0.6558139,0.12841 -0.8163277,0.22014 l 0.1329972,0.29351 c 0.073378,-0.0459 0.3393722,-0.18803 0.6558139,-0.18803 0.3164416,0 0.5411611,0.1651 0.5411611,0.4953 v 0.0871 l -0.5824361,0.0229 c -0.5044723,0.0229 -0.8530167,0.23848 -0.8530167,0.66499 0,0.42192 0.3485444,0.67416 0.7521222,0.67416 0.3989917,0 0.6053667,-0.23389 0.6925028,-0.32562 l 0.00459,0.27517 h 0.4265083 z m -0.4356805,0.68792 c -0.08255,0.12382 -0.2705806,0.31644 -0.5549195,0.31644 -0.288925,0 -0.4494388,-0.16968 -0.4494388,-0.37606 0,-0.20637 0.1421694,-0.35772 0.4952999,-0.37606 l 0.5090584,-0.0321 z"
         style="font-style:normal;font-variant:normal;font-weight:normal;font-stretch:normal;font-size:4.58611107px;font-family:Gibson;-inkscape-font-specification:Gibson;stroke-width:0.26458332"
         id="path4731" />
      <path
         d="m 10.644387,201.2315 h -0.43568 v 3.16442 h 0.43568 z"
         style="font-style:normal;font-variant:normal;font-weight:normal;font-stretch:normal;font-size:4.58611107px;font-family:Gibson;-inkscape-font-specification:Gibson;stroke-width:0.26458332"
         id="path4733" />
      <path
         d="m 13.122392,202.21293 h -0.440267 v 1.16946 c 0,0.36689 -0.155927,0.69709 -0.541161,0.69709 -0.389819,0 -0.454025,-0.27975 -0.454025,-0.57785 v -1.2887 h -0.43568 v 1.30704 c 0,0.31186 0.05045,0.52741 0.160514,0.67416 0.114652,0.14676 0.293511,0.25224 0.605366,0.25224 0.30727,0 0.55492,-0.15134 0.674159,-0.36231 l 0.0046,0.31186 h 0.426508 z"
         style="font-style:normal;font-variant:normal;font-weight:normal;font-stretch:normal;font-size:4.58611107px;font-family:Gibson;-inkscape-font-specification:Gibson;stroke-width:0.26458332"
         id="path4735" />
      <path
         d="m 15.416164,203.13015 c 0,-0.37147 -0.08714,-0.55492 -0.233891,-0.70626 -0.146756,-0.14675 -0.357717,-0.24765 -0.72002,-0.24765 -0.362303,0 -0.655814,0.12841 -0.816328,0.22014 l 0.132998,0.29351 c 0.07338,-0.0459 0.339372,-0.18803 0.655814,-0.18803 0.316441,0 0.541161,0.1651 0.541161,0.4953 v 0.0871 l -0.582436,0.0229 c -0.504473,0.0229 -0.853017,0.23848 -0.853017,0.66499 0,0.42192 0.348544,0.67416 0.752122,0.67416 0.398992,0 0.605367,-0.23389 0.692503,-0.32562 l 0.0046,0.27517 h 0.426508 z m -0.43568,0.68792 c -0.08255,0.12382 -0.270581,0.31644 -0.55492,0.31644 -0.288925,0 -0.449439,-0.16968 -0.449439,-0.37606 0,-0.20637 0.14217,-0.35772 0.4953,-0.37606 l 0.509059,-0.0321 z"
         style="font-style:normal;font-variant:normal;font-weight:normal;font-stretch:normal;font-size:4.58611107px;font-family:Gibson;-inkscape-font-specification:Gibson;stroke-width:0.26458332"
         id="path4737" />
      <path
         d="m 17.012991,204.01986 c 0,0 -0.09631,0.0505 -0.224719,0.0505 -0.123825,0 -0.183445,-0.0413 -0.22472,-0.11007 -0.05045,-0.0917 -0.05503,-0.21555 -0.05503,-0.39899 v -0.98602 h 0.522817 v -0.35313 h -0.522817 v -0.65122 h -0.440267 v 0.65122 h -0.321027 v 0.35313 h 0.321027 v 0.99519 c 0,0.34396 0.01835,0.51364 0.110067,0.65123 0.09172,0.13758 0.233892,0.22472 0.463197,0.22472 0.229306,0 0.398992,-0.0734 0.398992,-0.0734 z"
         style="font-style:normal;font-variant:normal;font-weight:normal;font-stretch:normal;font-size:4.58611107px;font-family:Gibson;-inkscape-font-specification:Gibson;stroke-width:0.26458332"
         id="path4739" />
      <path
         d="m 19.52059,203.3136 c 0,-0.67416 -0.504472,-1.13736 -1.151114,-1.13736 -0.651228,0 -1.1557,0.4632 -1.1557,1.13736 0,0.67874 0.504472,1.13277 1.1557,1.13277 0.646642,0 1.151114,-0.45403 1.151114,-1.13277 z m -0.444853,-0.0138 c 0,0.43109 -0.27058,0.77047 -0.706261,0.77047 -0.440266,0 -0.710847,-0.33938 -0.710847,-0.77047 0,-0.42651 0.270581,-0.76588 0.710847,-0.76588 0.435681,0 0.706261,0.33937 0.706261,0.76588 z"
         style="font-style:normal;font-variant:normal;font-weight:normal;font-stretch:normal;font-size:4.58611107px;font-family:Gibson;-inkscape-font-specification:Gibson;stroke-width:0.26458332"
         id="path4741" />
      <path
         d="m 21.191368,202.21293 c 0,0 -0.08255,-0.0367 -0.229306,-0.0367 -0.233891,0 -0.431094,0.12841 -0.536575,0.37606 h -0.01376 l 0.0046,-0.33478 h -0.440267 v 2.1784 h 0.440267 v -1.08691 c 0,-0.32103 0.09172,-0.49071 0.132997,-0.55033 0.04586,-0.0596 0.1651,-0.18345 0.357717,-0.18345 0.119239,0 0.197203,0.0275 0.238478,0.0459 h 0.01834 z"
         style="font-style:normal;font-variant:normal;font-weight:normal;font-stretch:normal;font-size:4.58611107px;font-family:Gibson;-inkscape-font-specification:Gibson;stroke-width:0.26458332"
         id="path4743" />
    </g>
    <rect
       style="opacity:0.98000004;fill:#000000;stroke-width:0.26458332"
       id="rect157"
       width="23.8125"
       height="15.875"
       x="0"
       y="209.00711" />
    <g
       aria-label="nREPL connection
localhost:4000

"
       style="font-style:normal;font-variant:normal;font-weight:normal;font-stretch:normal;font-size:3.52777767px;line-height:1.25;font-family:Menlo;-inkscape-font-specification:Menlo;letter-spacing:0px;word-spacing:0px;fill:#000000;fill-opacity:1;stroke:none;stroke-width:0.26458332"
       id="text4656">
      <path
         d="m 2.7871315,214.71544 v 0.71727 H 2.5959287 v -0.71727 q 0,-0.15606 -0.054777,-0.22944 -0.054777,-0.0734 -0.1715658,-0.0734 -0.1333252,0 -0.2056722,0.0951 -0.071313,0.0941 -0.071313,0.27079 v 0.65422 H 1.902431 v -1.15755 h 0.1901693 v 0.17363 q 0.050643,-0.0992 0.1374593,-0.14986 0.086816,-0.0517 0.2056722,-0.0517 0.1767333,0 0.2635497,0.11679 0.08785,0.11576 0.08785,0.3514 z"
         style="font-size:2.11666656px;fill:#ffffff;fill-opacity:1;stroke-width:0.26458332"
         id="path4668" />
      <path
         d="m 3.7596819,214.70407 q 0.080615,0.0207 0.1374593,0.0786 0.056844,0.0568 0.1415934,0.22841 l 0.2098063,0.42168 H 4.0242652 l -0.1839681,-0.38964 q -0.079582,-0.1664 -0.1436605,-0.21394 -0.063045,-0.0486 -0.1653646,-0.0486 H 3.331801 v 0.65216 H 3.1219947 v -1.54306 h 0.4299479 q 0.254248,0 0.3896403,0.11472 0.1353922,0.11472 0.1353922,0.33176 0,0.15297 -0.083716,0.25012 -0.082682,0.0961 -0.2335774,0.11782 z M 3.331801,214.06122 v 0.54777 h 0.2284098 q 0.1498617,0 0.2232422,-0.0672 0.07338,-0.0672 0.07338,-0.20568 0,-0.13332 -0.078548,-0.2036 -0.077515,-0.0713 -0.2263428,-0.0713 z"
         style="font-size:2.11666656px;fill:#ffffff;fill-opacity:1;stroke-width:0.26458332"
         id="path4670" />
      <path
         d="m 4.4511125,213.88965 h 0.9157063 v 0.1757 H 4.6598852 v 0.41548 h 0.6759277 v 0.1757 H 4.6598852 v 0.60048 h 0.7265706 v 0.1757 H 4.4511125 Z"
         style="font-size:2.11666656px;fill:#ffffff;fill-opacity:1;stroke-width:0.26458332"
         id="path4672" />
      <path
         d="m 5.9331923,214.06122 v 0.57981 H 6.175038 q 0.144694,0 0.2253093,-0.0765 0.081649,-0.0765 0.081649,-0.21394 0,-0.13745 -0.080615,-0.2129 -0.080615,-0.0765 -0.2263428,-0.0765 z M 5.7244196,213.88965 H 6.175038 q 0.2583822,0 0.3917074,0.11782 0.1333251,0.11679 0.1333251,0.34313 0,0.22841 -0.1333251,0.3452 -0.1322917,0.11679 -0.3917074,0.11679 H 5.9331923 v 0.62012 H 5.7244196 Z"
         style="font-size:2.11666656px;fill:#ffffff;fill-opacity:1;stroke-width:0.26458332"
         id="path4674" />
      <path
         d="m 7.0163304,213.88965 h 0.2098063 v 1.36736 h 0.7451741 v 0.1757 H 7.0163304 Z"
         style="font-size:2.11666656px;fill:#ffffff;fill-opacity:1;stroke-width:0.26458332"
         id="path4676" />
      <path
         d="m 10.43731,215.3738 q -0.07648,0.0444 -0.15813,0.0661 -0.08061,0.0227 -0.165365,0.0227 -0.2687171,0 -0.4206458,-0.16123 -0.1508952,-0.16123 -0.1508952,-0.44648 0,-0.28526 0.1508952,-0.44649 0.1519287,-0.16123 0.4206458,-0.16123 0.08372,0 0.163298,0.0217 0.07958,0.0217 0.160197,0.0672 v 0.19948 q -0.07545,-0.0672 -0.151929,-0.0972 -0.07545,-0.03 -0.171566,-0.03 -0.1788001,0 -0.2749183,0.11576 -0.096118,0.11575 -0.096118,0.33073 0,0.21394 0.096118,0.33073 0.097152,0.11575 0.2749183,0.11575 0.09922,0 0.177767,-0.03 0.07855,-0.031 0.145728,-0.0951 z"
         style="font-size:2.11666656px;fill:#ffffff;fill-opacity:1;stroke-width:0.26458332"
         id="path4678" />
      <path
         d="m 11.250697,214.40848 q -0.144694,0 -0.219108,0.11266 -0.07441,0.11265 -0.07441,0.33383 0,0.22014 0.07441,0.33383 0.07441,0.11265 0.219108,0.11265 0.145728,0 0.220142,-0.11265 0.07441,-0.11369 0.07441,-0.33383 0,-0.22118 -0.07441,-0.33383 -0.07441,-0.11266 -0.220142,-0.11266 z m 0,-0.16123 q 0.240812,0 0.367937,0.15606 0.128157,0.15607 0.128157,0.45166 0,0.29662 -0.127124,0.45268 -0.127124,0.15503 -0.36897,0.15503 -0.240812,0 -0.367936,-0.15503 -0.127124,-0.15606 -0.127124,-0.45268 0,-0.29559 0.127124,-0.45166 0.127124,-0.15606 0.367936,-0.15606 z"
         style="font-size:2.11666656px;fill:#ffffff;fill-opacity:1;stroke-width:0.26458332"
         id="path4680" />
      <path
         d="m 12.973589,214.71544 v 0.71727 h -0.191203 v -0.71727 q 0,-0.15606 -0.05478,-0.22944 -0.05478,-0.0734 -0.171565,-0.0734 -0.133326,0 -0.205673,0.0951 -0.07131,0.0941 -0.07131,0.27079 v 0.65422 h -0.190169 v -1.15755 h 0.190169 v 0.17363 q 0.05064,-0.0992 0.137459,-0.14986 0.08682,-0.0517 0.205672,-0.0517 0.176734,0 0.26355,0.11679 0.08785,0.11576 0.08785,0.3514 z"
         style="font-size:2.11666656px;fill:#ffffff;fill-opacity:1;stroke-width:0.26458332"
         id="path4682" />
      <path
         d="m 14.246896,214.71544 v 0.71727 h -0.191203 v -0.71727 q 0,-0.15606 -0.05478,-0.22944 -0.05478,-0.0734 -0.171566,-0.0734 -0.133325,0 -0.205672,0.0951 -0.07131,0.0941 -0.07131,0.27079 v 0.65422 h -0.19017 v -1.15755 h 0.19017 v 0.17363 q 0.05064,-0.0992 0.137459,-0.14986 0.08682,-0.0517 0.205672,-0.0517 0.176734,0 0.26355,0.11679 0.08785,0.11576 0.08785,0.3514 z"
         style="font-size:2.11666656px;fill:#ffffff;fill-opacity:1;stroke-width:0.26458332"
         id="path4684" />
      <path
         d="m 15.591517,214.75885 v 0.093 h -0.823722 v 0.006 q -0.0083,0.23667 0.08992,0.34003 0.09922,0.10335 0.279053,0.10335 0.09095,0 0.190169,-0.0289 0.09922,-0.0289 0.211873,-0.0879 v 0.18914 q -0.10852,0.0444 -0.209806,0.0661 -0.100252,0.0227 -0.194303,0.0227 -0.269751,0 -0.42168,-0.16123 -0.151929,-0.16226 -0.151929,-0.44648 0,-0.27699 0.148828,-0.44235 0.148828,-0.16537 0.396875,-0.16537 0.221175,0 0.348299,0.14986 0.128158,0.14986 0.136426,0.36174 z m -0.190169,-0.0558 q -0.0124,-0.11989 -0.08785,-0.20671 -0.07441,-0.0879 -0.214974,-0.0879 -0.137459,0 -0.226343,0.0909 -0.08888,0.091 -0.09715,0.20464 z"
         style="font-size:2.11666656px;fill:#ffffff;fill-opacity:1;stroke-width:0.26458332"
         id="path4686" />
      <path
         d="m 16.803846,215.3738 q -0.07648,0.0444 -0.15813,0.0661 -0.08062,0.0227 -0.165365,0.0227 -0.268717,0 -0.420646,-0.16123 -0.150895,-0.16123 -0.150895,-0.44648 0,-0.28526 0.150895,-0.44649 0.151929,-0.16123 0.420646,-0.16123 0.08372,0 0.163298,0.0217 0.07958,0.0217 0.160197,0.0672 v 0.19948 q -0.07545,-0.0672 -0.151929,-0.0972 -0.07545,-0.03 -0.171566,-0.03 -0.1788,0 -0.274918,0.11576 -0.09612,0.11575 -0.09612,0.33073 0,0.21394 0.09612,0.33073 0.09715,0.11575 0.274918,0.11575 0.09922,0 0.177767,-0.03 0.07855,-0.031 0.145728,-0.0951 z"
         style="font-size:2.11666656px;fill:#ffffff;fill-opacity:1;stroke-width:0.26458332"
         id="path4688" />
      <path
         d="m 17.615165,213.94649 v 0.32867 h 0.432015 v 0.14779 h -0.432015 v 0.62839 q 0,0.12815 0.04858,0.1788 0.04858,0.0506 0.169499,0.0506 h 0.21394 v 0.15193 h -0.232544 q -0.21394,0 -0.30179,-0.0858 -0.08785,-0.0858 -0.08785,-0.29559 v -0.62839 h -0.309025 v -0.14779 h 0.309025 v -0.32867 z"
         style="font-size:2.11666656px;fill:#ffffff;fill-opacity:1;stroke-width:0.26458332"
         id="path4690" />
      <path
         d="m 18.580482,214.27929 h 0.486792 v 1.00562 h 0.377238 v 0.1478 h -0.944645 v -0.1478 h 0.377237 v -0.85782 h -0.296622 z m 0.296622,-0.44958 h 0.19017 v 0.23977 h -0.19017 z"
         style="font-size:2.11666656px;fill:#ffffff;fill-opacity:1;stroke-width:0.26458332"
         id="path4692" />
      <path
         d="m 20.163848,214.40848 q -0.144694,0 -0.219108,0.11266 -0.07441,0.11265 -0.07441,0.33383 0,0.22014 0.07441,0.33383 0.07441,0.11265 0.219108,0.11265 0.145728,0 0.220142,-0.11265 0.07441,-0.11369 0.07441,-0.33383 0,-0.22118 -0.07441,-0.33383 -0.07441,-0.11266 -0.220142,-0.11266 z m 0,-0.16123 q 0.240812,0 0.367936,0.15606 0.128158,0.15607 0.128158,0.45166 0,0.29662 -0.127124,0.45268 -0.127124,0.15503 -0.36897,0.15503 -0.240812,0 -0.367936,-0.15503 -0.127124,-0.15606 -0.127124,-0.45268 0,-0.29559 0.127124,-0.45166 0.127124,-0.15606 0.367936,-0.15606 z"
         style="font-size:2.11666656px;fill:#ffffff;fill-opacity:1;stroke-width:0.26458332"
         id="path4694" />
      <path
         d="m 21.886739,214.71544 v 0.71727 h -0.191203 v -0.71727 q 0,-0.15606 -0.05478,-0.22944 -0.05478,-0.0734 -0.171566,-0.0734 -0.133325,0 -0.205672,0.0951 -0.07131,0.0941 -0.07131,0.27079 v 0.65422 h -0.19017 v -1.15755 h 0.19017 v 0.17363 q 0.05064,-0.0992 0.137459,-0.14986 0.08682,-0.0517 0.205672,-0.0517 0.176734,0 0.26355,0.11679 0.08785,0.11576 0.08785,0.3514 z"
         style="font-size:2.11666656px;fill:#ffffff;fill-opacity:1;stroke-width:0.26458332"
         id="path4696" />
      <path
         d="m 2.444,219.42385 q 0,0.12816 0.046509,0.19327 0.047542,0.0651 0.1395263,0.0651 h 0.2222087 v 0.1602 H 2.6114316 q -0.1705322,0 -0.2645833,-0.10852 -0.093018,-0.10955 -0.093018,-0.31006 v -1.04696 H 1.9489398 v -0.14883 H 2.444 Z"
         style="font-size:2.11666656px;fill:#ffffff;fill-opacity:1;stroke-width:0.26458332"
         id="path4698" />
      <path
         d="m 3.6108537,218.8182 q -0.144694,0 -0.219108,0.11266 -0.074414,0.11265 -0.074414,0.33383 0,0.22014 0.074414,0.33383 0.074414,0.11265 0.219108,0.11265 0.1457276,0 0.2201416,-0.11265 0.074414,-0.11369 0.074414,-0.33383 0,-0.22118 -0.074414,-0.33383 -0.074414,-0.11266 -0.2201416,-0.11266 z m 0,-0.16123 q 0.2408122,0 0.3679362,0.15607 0.1281576,0.15606 0.1281576,0.45165 0,0.29662 -0.1271241,0.45268 -0.127124,0.15503 -0.3689697,0.15503 -0.2408121,0 -0.3679361,-0.15503 -0.1271241,-0.15606 -0.1271241,-0.45268 0,-0.29559 0.1271241,-0.45165 0.127124,-0.15607 0.3679361,-0.15607 z"
         style="font-size:2.11666656px;fill:#ffffff;fill-opacity:1;stroke-width:0.26458332"
         id="path4700" />
      <path
         d="m 5.3440812,219.78352 q -0.076481,0.0444 -0.1581299,0.0661 -0.080615,0.0227 -0.1653646,0.0227 -0.2687174,0 -0.4206461,-0.16123 -0.1508952,-0.16123 -0.1508952,-0.44648 0,-0.28526 0.1508952,-0.44649 0.1519287,-0.16123 0.4206461,-0.16123 0.083716,0 0.1632975,0.0217 0.079582,0.0217 0.160197,0.0672 v 0.19947 q -0.075448,-0.0672 -0.1519287,-0.0971 -0.075448,-0.03 -0.1715658,-0.03 -0.1788004,0 -0.2749186,0.11576 -0.096118,0.11575 -0.096118,0.33073 0,0.21394 0.096118,0.33073 0.097152,0.11575 0.2749186,0.11575 0.099219,0 0.1777669,-0.03 0.078548,-0.031 0.1457276,-0.0951 z"
         style="font-size:2.11666656px;fill:#ffffff;fill-opacity:1;stroke-width:0.26458332"
         id="path4702" />
      <path
         d="m 6.2463515,219.26055 h -0.063045 q -0.1663981,0 -0.2511474,0.0589 -0.083716,0.0579 -0.083716,0.17363 0,0.10438 0.063045,0.16226 0.063045,0.0579 0.1746664,0.0579 0.1570963,0 0.2470133,-0.10852 0.089917,-0.10955 0.09095,-0.30179 v -0.0424 z m 0.3689697,-0.0785 v 0.66042 H 6.4241184 v -0.17156 q -0.060978,0.10335 -0.1539958,0.15296 -0.091984,0.0486 -0.2242757,0.0486 -0.1767333,0 -0.2821533,-0.0992 -0.1054199,-0.10025 -0.1054199,-0.26768 0,-0.19327 0.1291911,-0.29352 0.1302246,-0.10025 0.381372,-0.10025 h 0.2552816 v -0.03 q -0.00103,-0.13849 -0.07028,-0.2005 -0.069247,-0.0631 -0.2211752,-0.0631 -0.097152,0 -0.1963704,0.0279 -0.099219,0.0279 -0.1932698,0.0816 v -0.19017 q 0.1054199,-0.0403 0.201538,-0.06 0.097152,-0.0207 0.1881022,-0.0207 0.1436605,0 0.2449463,0.0424 0.1023194,0.0424 0.1653646,0.12712 0.039274,0.0517 0.055811,0.12816 0.016536,0.0754 0.016536,0.22738 z"
         style="font-size:2.11666656px;fill:#ffffff;fill-opacity:1;stroke-width:0.26458332"
         id="path4704" />
      <path
         d="m 7.5372288,219.42385 q 0,0.12816 0.046509,0.19327 0.047542,0.0651 0.1395263,0.0651 h 0.2222087 v 0.1602 H 7.7046604 q -0.1705322,0 -0.2645833,-0.10852 -0.093018,-0.10955 -0.093018,-0.31006 v -1.04696 H 7.0421686 v -0.14883 h 0.4950602 z"
         style="font-size:2.11666656px;fill:#ffffff;fill-opacity:1;stroke-width:0.26458332"
         id="path4706" />
      <path
         d="m 9.1536676,219.12516 v 0.71727 H 8.9624648 v -0.71727 q 0,-0.15606 -0.054777,-0.22944 -0.054777,-0.0734 -0.1715657,-0.0734 -0.1333252,0 -0.2056722,0.0951 -0.071314,0.0941 -0.071314,0.27079 v 0.65422 H 8.2689671 v -1.60817 h 0.1901693 v 0.62425 q 0.050643,-0.0992 0.1374593,-0.14986 0.086816,-0.0517 0.2056722,-0.0517 0.1767334,0 0.2635498,0.11679 0.08785,0.11576 0.08785,0.3514 z"
         style="font-size:2.11666656px;fill:#ffffff;fill-opacity:1;stroke-width:0.26458332"
         id="path4708" />
      <path
         d="m 9.9773895,218.8182 q -0.144694,0 -0.219108,0.11266 -0.074414,0.11265 -0.074414,0.33383 0,0.22014 0.074414,0.33383 0.074414,0.11265 0.219108,0.11265 0.1457275,0 0.2201415,-0.11265 0.07441,-0.11369 0.07441,-0.33383 0,-0.22118 -0.07441,-0.33383 -0.07441,-0.11266 -0.2201415,-0.11266 z m 0,-0.16123 q 0.2408125,0 0.3679365,0.15607 0.128157,0.15606 0.128157,0.45165 0,0.29662 -0.127124,0.45268 -0.127124,0.15503 -0.3689695,0.15503 -0.2408121,0 -0.3679362,-0.15503 -0.127124,-0.15606 -0.127124,-0.45268 0,-0.29559 0.127124,-0.45165 0.1271241,-0.15607 0.3679362,-0.15607 z"
         style="font-size:2.11666656px;fill:#ffffff;fill-opacity:1;stroke-width:0.26458332"
         id="path4710" />
      <path
         d="m 11.619667,218.72519 v 0.18603 q -0.08165,-0.0475 -0.164331,-0.0713 -0.08268,-0.0238 -0.168465,-0.0238 -0.129191,0 -0.19327,0.0424 -0.06304,0.0413 -0.06304,0.12713 0,0.0775 0.04754,0.11575 0.04754,0.0382 0.236678,0.0744 l 0.07648,0.0145 q 0.141594,0.0269 0.213941,0.10749 0.07338,0.0806 0.07338,0.20981 0,0.17156 -0.121956,0.26872 -0.121957,0.0961 -0.338998,0.0961 -0.08578,0 -0.179834,-0.0186 -0.09405,-0.0176 -0.203605,-0.0537 v -0.19637 q 0.106454,0.0548 0.203605,0.0827 0.09715,0.0269 0.183969,0.0269 0.12609,0 0.195336,-0.0506 0.06925,-0.0517 0.06925,-0.14366 0,-0.1323 -0.253215,-0.18294 l -0.0083,-0.002 -0.07131,-0.0145 q -0.164331,-0.032 -0.239779,-0.10749 -0.07545,-0.0765 -0.07545,-0.20774 0,-0.1664 0.112655,-0.25632 0.112655,-0.0909 0.321427,-0.0909 0.09302,0 0.178801,0.0176 0.08578,0.0165 0.168465,0.0506 z"
         style="font-size:2.11666656px;fill:#ffffff;fill-opacity:1;stroke-width:0.26458332"
         id="path4712" />
      <path
         d="m 12.521937,218.35622 v 0.32866 h 0.432015 v 0.14779 h -0.432015 v 0.62839 q 0,0.12816 0.04858,0.1788 0.04858,0.0506 0.169499,0.0506 h 0.21394 v 0.15193 h -0.232544 q -0.21394,0 -0.30179,-0.0858 -0.08785,-0.0858 -0.08785,-0.29559 v -0.62839 h -0.309025 v -0.14779 h 0.309025 v -0.32866 z"
         style="font-size:2.11666656px;fill:#ffffff;fill-opacity:1;stroke-width:0.26458332"
         id="path4714" />
      <path
         d="m 13.604041,218.68591 h 0.322461 v 0.37311 h -0.322461 z m 0,0.78032 h 0.322461 v 0.3762 h -0.322461 z"
         style="font-size:2.11666656px;fill:#ffffff;fill-opacity:1;stroke-width:0.26458332"
         id="path4716" />
      <path
         d="m 15.193609,218.48954 -0.486792,0.81546 h 0.486792 z m -0.03411,-0.19017 h 0.241846 v 1.00563 h 0.205672 v 0.16949 h -0.205672 v 0.36794 h -0.207739 v -0.36794 h -0.654224 v -0.1974 z"
         style="font-size:2.11666656px;fill:#ffffff;fill-opacity:1;stroke-width:0.26458332"
         id="path4718" />
      <path
         d="m 16.343926,218.27664 q 0.247013,0 0.373103,0.20153 0.127125,0.20154 0.127125,0.59635 0,0.39481 -0.127125,0.59635 -0.12609,0.20153 -0.373103,0.20153 -0.247014,0 -0.373104,-0.20153 -0.126091,-0.20154 -0.126091,-0.59635 0,-0.39481 0.126091,-0.59635 0.12609,-0.20153 0.373104,-0.20153 z m 0,1.4304 q 0.146761,0 0.218074,-0.15606 0.07235,-0.15607 0.07235,-0.47646 0,-0.17053 -0.02067,-0.30799 l -0.49196,0.76998 q 0.07751,0.17053 0.222209,0.17053 z m 0,-1.26504 q -0.145728,0 -0.218075,0.15606 -0.07131,0.15607 -0.07131,0.47646 0,0.14573 0.01964,0.27285 l 0.481624,-0.76791 Q 16.477251,218.442 16.343926,218.442 Z"
         style="font-size:2.11666656px;fill:#ffffff;fill-opacity:1;stroke-width:0.26458332"
         id="path4720" />
      <path
         d="m 17.617233,218.27664 q 0.247013,0 0.373103,0.20153 0.127124,0.20154 0.127124,0.59635 0,0.39481 -0.127124,0.59635 -0.12609,0.20153 -0.373103,0.20153 -0.247014,0 -0.373104,-0.20153 -0.126091,-0.20154 -0.126091,-0.59635 0,-0.39481 0.126091,-0.59635 0.12609,-0.20153 0.373104,-0.20153 z m 0,1.4304 q 0.146761,0 0.218074,-0.15606 0.07235,-0.15607 0.07235,-0.47646 0,-0.17053 -0.02067,-0.30799 l -0.491959,0.76998 q 0.07752,0.17053 0.222209,0.17053 z m 0,-1.26504 q -0.145728,0 -0.218075,0.15606 -0.07131,0.15607 -0.07131,0.47646 0,0.14573 0.01964,0.27285 l 0.481624,-0.76791 Q 17.750558,218.442 17.617233,218.442 Z"
         style="font-size:2.11666656px;fill:#ffffff;fill-opacity:1;stroke-width:0.26458332"
         id="path4722" />
      <path
         d="m 18.89054,218.27664 q 0.247014,0 0.373104,0.20153 0.127124,0.20154 0.127124,0.59635 0,0.39481 -0.127124,0.59635 -0.12609,0.20153 -0.373104,0.20153 -0.247013,0 -0.373104,-0.20153 -0.12609,-0.20154 -0.12609,-0.59635 0,-0.39481 0.12609,-0.59635 0.126091,-0.20153 0.373104,-0.20153 z m 0,1.4304 q 0.146761,0 0.218075,-0.15606 0.07235,-0.15607 0.07235,-0.47646 0,-0.17053 -0.02067,-0.30799 l -0.491959,0.76998 q 0.07751,0.17053 0.222208,0.17053 z m 0,-1.26504 q -0.145727,0 -0.218074,0.15606 -0.07131,0.15607 -0.07131,0.47646 0,0.14573 0.01964,0.27285 l 0.481625,-0.76791 Q 19.023866,218.442 18.89054,218.442 Z"
         style="font-size:2.11666656px;fill:#ffffff;fill-opacity:1;stroke-width:0.26458332"
         id="path4724" />
    </g>
    <g
       aria-label="inputs"
       style="font-style:normal;font-variant:normal;font-weight:normal;font-stretch:normal;font-size:3.52777767px;line-height:1.25;font-family:Menlo;-inkscape-font-specification:Menlo;letter-spacing:0px;word-spacing:0px;fill:#000000;fill-opacity:1;stroke:none;stroke-width:0.26458332"
       id="text4748"
       transform="translate(0,-7.4083337)">
      <path
         d="m 7.3388901,247.87957 q 0.077515,0 0.1326362,0.0534 0.055122,0.0534 0.055122,0.13092 0,0.0758 -0.055122,0.13091 -0.055122,0.0551 -0.1326362,0.0551 -0.072347,0 -0.1274685,-0.0551 -0.055122,-0.0568 -0.055122,-0.13091 0,-0.0724 0.055122,-0.12747 0.055121,-0.0568 0.1274685,-0.0568 z m -0.1550293,0.66662 h 0.3135037 v 1.58475 H 7.1838608 Z"
         style="font-style:normal;font-variant:normal;font-weight:normal;font-stretch:normal;font-family:'Gill Sans';-inkscape-font-specification:'Gill Sans';stroke-width:0.26458332"
         id="path4769"
         inkscape:connector-curvature="0" />
      <path
         d="m 8.2621756,248.54619 v 0.20154 q 0.2101509,-0.23254 0.4771458,-0.23254 0.1481391,0 0.2756076,0.0775 0.1274685,0.0758 0.1929253,0.21015 0.067179,0.13264 0.067179,0.42203 v 0.90606 H 8.96153 v -0.90262 q 0,-0.24288 -0.07407,-0.34623 -0.07407,-0.10508 -0.2480469,-0.10508 -0.2222087,0 -0.377238,0.22221 v 1.13172 H 7.9417818 v -1.58475 z"
         style="font-style:normal;font-variant:normal;font-weight:normal;font-stretch:normal;font-family:'Gill Sans';-inkscape-font-specification:'Gill Sans';stroke-width:0.26458332"
         id="path4771"
         inkscape:connector-curvature="0" />
      <path
         d="m 9.6918902,250.93881 v -2.39262 h 0.5494928 q 0.422024,0 0.656291,0.21015 0.235989,0.21015 0.235989,0.58739 0,0.35657 -0.222209,0.58567 -0.220486,0.2291 -0.563273,0.2291 -0.151584,0 -0.335897,-0.0672 v 0.84749 z m 0.5426028,-2.09979 h -0.222209 v 0.97497 q 0.144694,0.0741 0.303168,0.0741 0.220487,0 0.360013,-0.15331 0.141249,-0.15331 0.141249,-0.39446 0,-0.15503 -0.06718,-0.27389 -0.06546,-0.11885 -0.180868,-0.17225 -0.113688,-0.0551 -0.334174,-0.0551 z"
         style="font-style:normal;font-variant:normal;font-weight:normal;font-stretch:normal;font-family:'Gill Sans';-inkscape-font-specification:'Gill Sans';stroke-width:0.26458332"
         id="path4773"
         inkscape:connector-curvature="0" />
      <path
         d="m 12.485863,250.13094 v -0.20154 q -0.09991,0.10852 -0.229099,0.16881 -0.127469,0.0603 -0.254937,0.0603 -0.149862,0 -0.27733,-0.0741 -0.125746,-0.0758 -0.191203,-0.20326 -0.06373,-0.12919 -0.06373,-0.4272 v -0.90778 h 0.313504 v 0.90434 q 0,0.24977 0.07062,0.34968 0.07235,0.0982 0.251492,0.0982 0.223931,0 0.380683,-0.21876 v -1.13344 h 0.313503 v 1.58475 z"
         style="font-style:normal;font-variant:normal;font-weight:normal;font-stretch:normal;font-family:'Gill Sans';-inkscape-font-specification:'Gill Sans';stroke-width:0.26458332"
         id="path4775"
         inkscape:connector-curvature="0" />
      <path
         d="m 13.01813,248.79768 0.589111,-0.57877 v 0.32728 h 0.501262 v 0.2825 h -0.501262 v 0.77687 q 0,0.27216 0.225654,0.27216 0.16881,0 0.356567,-0.11369 v 0.29284 q -0.180867,0.10163 -0.394463,0.10163 -0.215319,0 -0.35829,-0.12575 -0.04479,-0.0379 -0.07407,-0.0844 -0.02928,-0.0482 -0.04995,-0.12403 -0.01895,-0.0775 -0.01895,-0.29283 v -0.7028 H 13.01813 Z"
         style="font-style:normal;font-variant:normal;font-weight:normal;font-stretch:normal;font-family:'Gill Sans';-inkscape-font-specification:'Gill Sans';stroke-width:0.26458332"
         id="path4777"
         inkscape:connector-curvature="0" />
      <path
         d="m 14.341046,250.01725 v -0.33762 q 0.132637,0.093 0.27044,0.15158 0.139527,0.0568 0.234267,0.0568 0.09818,0 0.16881,-0.0482 0.07062,-0.0482 0.07062,-0.11542 0,-0.0689 -0.04651,-0.11368 -0.04479,-0.0465 -0.19637,-0.13264 -0.303169,-0.16881 -0.397909,-0.28767 -0.09302,-0.12057 -0.09302,-0.26182 0,-0.18259 0.141249,-0.298 0.142971,-0.11541 0.366902,-0.11541 0.232544,0 0.477146,0.13091 v 0.31006 q -0.279053,-0.16881 -0.456475,-0.16881 -0.0913,0 -0.148139,0.0396 -0.05512,0.0379 -0.05512,0.10163 0,0.0551 0.04995,0.10507 0.05168,0.05 0.179145,0.12058 l 0.111966,0.0637 q 0.396186,0.22393 0.396186,0.49609 0,0.19465 -0.153307,0.32039 -0.151584,0.12403 -0.391018,0.12403 -0.141249,0 -0.251492,-0.0293 -0.110243,-0.031 -0.277331,-0.11196 z"
         style="font-style:normal;font-variant:normal;font-weight:normal;font-stretch:normal;font-family:'Gill Sans';-inkscape-font-specification:'Gill Sans';stroke-width:0.26458332"
         id="path4779"
         inkscape:connector-curvature="0" />
    </g>
    <g
       aria-label="outputs"
       style="font-style:normal;font-variant:normal;font-weight:normal;font-stretch:normal;font-size:3.52777767px;line-height:1.25;font-family:Menlo;-inkscape-font-specification:Menlo;letter-spacing:0px;word-spacing:0px;fill:#000000;fill-opacity:1;stroke:none;stroke-width:0.26458332"
       id="text4752"
       transform="translate(0,-7.9375004)">
      <path
         d="m 7.4057249,273.86716 q 0.361735,0 0.6011692,0.23427 0.2394341,0.23254 0.2394341,0.58567 0,0.34278 -0.2428792,0.57016 -0.2428793,0.22565 -0.6115045,0.22565 -0.3565673,0 -0.5960015,-0.2291 -0.2394341,-0.23082 -0.2394341,-0.57533 0,-0.34795 0.2411567,-0.57877 0.2428792,-0.23255 0.6080593,-0.23255 z m -0.017226,0.2825 q -0.2256537,0 -0.3703477,0.14814 -0.144694,0.14814 -0.144694,0.37724 0,0.22737 0.1481391,0.37207 0.1481391,0.14297 0.380683,0.14297 0.2308214,0 0.377238,-0.14469 0.1481391,-0.14642 0.1481391,-0.3738 0,-0.22565 -0.1533068,-0.37379 -0.1533067,-0.14814 -0.3858507,-0.14814 z"
         style="font-style:normal;font-variant:normal;font-weight:normal;font-stretch:normal;font-family:'Gill Sans';-inkscape-font-specification:'Gill Sans';stroke-width:0.26458332"
         id="path4754"
         inkscape:connector-curvature="0" />
      <path
         d="m 9.6071409,275.45535 v -0.20154 q -0.099908,0.10853 -0.2290989,0.16881 -0.1274685,0.0603 -0.254937,0.0603 -0.1498617,0 -0.2773302,-0.0741 -0.125746,-0.0758 -0.1912028,-0.20326 -0.063734,-0.12919 -0.063734,-0.42719 v -0.90778 h 0.3135037 v 0.90434 q 0,0.24977 0.070625,0.34967 0.072347,0.0982 0.2514919,0.0982 0.2239312,0 0.3806831,-0.21876 v -1.13344 h 0.3135037 v 1.58474 z"
         style="font-style:normal;font-variant:normal;font-weight:normal;font-stretch:normal;font-family:'Gill Sans';-inkscape-font-specification:'Gill Sans';stroke-width:0.26458332"
         id="path4756"
         inkscape:connector-curvature="0" />
      <path
         d="m 10.139408,274.1221 0.589111,-0.57878 v 0.32729 h 0.501262 v 0.2825 h -0.501262 v 0.77687 q 0,0.27216 0.225654,0.27216 0.16881,0 0.356568,-0.11369 v 0.29283 q -0.180868,0.10163 -0.394464,0.10163 -0.215318,0 -0.35829,-0.12574 -0.04479,-0.0379 -0.07407,-0.0844 -0.02928,-0.0482 -0.04995,-0.12402 -0.01895,-0.0775 -0.01895,-0.29283 v -0.7028 h -0.275608 z"
         style="font-style:normal;font-variant:normal;font-weight:normal;font-stretch:normal;font-family:'Gill Sans';-inkscape-font-specification:'Gill Sans';stroke-width:0.26458332"
         id="path4758"
         inkscape:connector-curvature="0" />
      <path
         d="m 11.519169,276.26323 v -2.39262 h 0.549493 q 0.422024,0 0.65629,0.21015 0.235989,0.21015 0.235989,0.58739 0,0.35657 -0.222208,0.58566 -0.220486,0.2291 -0.563273,0.2291 -0.151585,0 -0.335897,-0.0672 v 0.8475 z m 0.542602,-2.09979 h -0.222208 v 0.97496 q 0.144694,0.0741 0.303168,0.0741 0.220486,0 0.360013,-0.1533 0.141248,-0.15331 0.141248,-0.39447 0,-0.15503 -0.06718,-0.27388 -0.06546,-0.11886 -0.180867,-0.17226 -0.113689,-0.0551 -0.334175,-0.0551 z"
         style="font-style:normal;font-variant:normal;font-weight:normal;font-stretch:normal;font-family:'Gill Sans';-inkscape-font-specification:'Gill Sans';stroke-width:0.26458332"
         id="path4760"
         inkscape:connector-curvature="0" />
      <path
         d="m 14.313141,275.45535 v -0.20154 q -0.09991,0.10853 -0.229099,0.16881 -0.127468,0.0603 -0.254937,0.0603 -0.149861,0 -0.27733,-0.0741 -0.125746,-0.0758 -0.191203,-0.20326 -0.06373,-0.12919 -0.06373,-0.42719 v -0.90778 h 0.313504 v 0.90434 q 0,0.24977 0.07062,0.34967 0.07235,0.0982 0.251492,0.0982 0.223931,0 0.380683,-0.21876 v -1.13344 h 0.313504 v 1.58474 z"
         style="font-style:normal;font-variant:normal;font-weight:normal;font-stretch:normal;font-family:'Gill Sans';-inkscape-font-specification:'Gill Sans';stroke-width:0.26458332"
         id="path4762"
         inkscape:connector-curvature="0" />
      <path
         d="m 14.845408,274.1221 0.589112,-0.57878 v 0.32729 h 0.501261 v 0.2825 H 15.43452 v 0.77687 q 0,0.27216 0.225653,0.27216 0.16881,0 0.356568,-0.11369 v 0.29283 q -0.180868,0.10163 -0.394464,0.10163 -0.215318,0 -0.358289,-0.12574 -0.04479,-0.0379 -0.07407,-0.0844 -0.02928,-0.0482 -0.04995,-0.12402 -0.01895,-0.0775 -0.01895,-0.29283 v -0.7028 H 14.84541 Z"
         style="font-style:normal;font-variant:normal;font-weight:normal;font-stretch:normal;font-family:'Gill Sans';-inkscape-font-specification:'Gill Sans';stroke-width:0.26458332"
         id="path4764"
         inkscape:connector-curvature="0" />
      <path
         d="m 16.168325,275.34166 v -0.33761 q 0.132636,0.093 0.27044,0.15158 0.139526,0.0568 0.234267,0.0568 0.09819,0 0.168809,-0.0482 0.07062,-0.0482 0.07062,-0.11541 0,-0.0689 -0.04651,-0.11369 -0.04479,-0.0465 -0.196371,-0.13263 -0.303168,-0.16881 -0.397908,-0.28767 -0.09302,-0.12058 -0.09302,-0.26183 0,-0.18259 0.141249,-0.298 0.142972,-0.11541 0.366903,-0.11541 0.232544,0 0.477146,0.13092 v 0.31006 q -0.279053,-0.16881 -0.456475,-0.16881 -0.09129,0 -0.14814,0.0396 -0.05512,0.0379 -0.05512,0.10163 0,0.0551 0.04995,0.10508 0.05168,0.05 0.179145,0.12058 l 0.111965,0.0637 q 0.396186,0.22393 0.396186,0.4961 0,0.19464 -0.153306,0.32039 -0.151585,0.12402 -0.391019,0.12402 -0.141249,0 -0.251492,-0.0293 -0.110243,-0.031 -0.27733,-0.11197 z"
         style="font-style:normal;font-variant:normal;font-weight:normal;font-stretch:normal;font-family:'Gill Sans';-inkscape-font-specification:'Gill Sans';stroke-width:0.26458332"
         id="path4766"
         inkscape:connector-curvature="0" />
    </g>
  </g>
</svg>
