<?xml version="1.0" encoding="UTF-8"?>
<svg width="90px" height="379px" viewBox="0 0 90 379" version="1.1" xmlns="http://www.w3.org/2000/svg" xmlns:xlink="http://www.w3.org/1999/xlink">
    <!-- Generator: Sketch 51 (57462) - http://www.bohemiancoding.com/sketch -->
    <title>Evaluator</title>
    <desc>Created with Sketch.</desc>
    <defs></defs>
    <g id="Page-1" stroke="none" stroke-width="1" fill="none" fill-rule="evenodd">
        <g id="Evaluator">
            <polygon id="rect817" fill="#3E3D3D" points="0 0 89.296875 0 89.296875 378.275628 0 378.275628"></polygon>
            <rect id="rect157" fill="#000000" fill-rule="nonzero" opacity="0.98000004" x="0" y="47.2132693" width="89.296875" height="59.7277228"></rect>
            <path d="M28.1890869,161.720316 C28.1890869,162.020377 28.0630506,162.301144 27.8109741,162.562626 C27.5588977,162.824107 27.2833267,162.954846 26.9842529,162.954846 C26.5997295,162.954846 26.4074707,162.761953 26.4074707,162.37616 C26.4074707,162.093246 26.5399157,161.821052 26.8048096,161.55957 C27.0697035,161.298089 27.3474107,161.16735 27.6379395,161.16735 C28.0053729,161.16735 28.1890869,161.35167 28.1890869,161.720316 Z M28.3685303,167.044226 C28.3599853,167.069945 28.3172611,167.13853 28.2403564,167.249981 L27.689209,168.008702 C26.0827556,170.246298 24.8565716,171.36508 24.0106201,171.36508 C23.6090068,171.36508 23.273622,171.221481 23.0044556,170.93428 C22.7352892,170.647079 22.600708,170.289155 22.600708,169.860497 C22.600708,169.363253 22.8955049,168.608826 23.4851074,167.597192 L25.4846191,164.189376 C25.749513,164.249388 25.9588615,164.279394 26.1126709,164.279394 C26.3433849,164.279394 26.6680887,164.249388 27.086792,164.189376 L24.1772461,168.986038 C23.7585428,169.680464 23.5491943,170.216279 23.5491943,170.593499 C23.5491943,170.979291 23.749998,171.172184 24.1516113,171.172184 C24.9121132,171.172184 26.2493801,169.813358 28.1634521,167.095664 C28.206177,167.009933 28.2489012,166.967068 28.291626,166.967068 C28.3428958,166.967068 28.3685303,166.992787 28.3685303,167.044226 Z M38.6608887,167.044226 C38.6608887,167.224262 38.041388,168.055847 36.8023682,169.539004 C35.7855174,170.756394 34.9865752,171.36508 34.4055176,171.36508 C34.0209942,171.36508 33.6984266,171.215052 33.4378052,170.914991 C33.1771838,170.61493 33.046875,170.246289 33.046875,169.809058 C33.046875,169.423265 33.1259147,169.065341 33.2839966,168.735274 C33.4420784,168.405207 33.8543668,167.751513 34.520874,166.774172 C35.2130162,165.745392 35.559082,165.089555 35.559082,164.806641 C35.559082,164.455141 35.375368,164.279394 35.0079346,164.279394 C33.7603697,164.279394 31.8377815,166.602687 29.2401123,171.249343 C28.821409,171.21505 28.5693364,171.197904 28.4838867,171.197904 C28.184813,171.197904 27.9028334,171.21505 27.6379395,171.249343 L29.6374512,168.073 C30.7739315,166.255489 31.3421631,165.119562 31.3421631,164.665184 C31.3421631,164.407989 31.2353526,164.279394 31.0217285,164.279394 C30.5859353,164.279394 29.7271793,165.200995 28.4454346,167.044226 C28.3685299,167.155677 28.308716,167.215688 28.2659912,167.224261 C28.2232664,167.224261 28.1976319,167.198542 28.1890869,167.147103 C28.1976319,167.104237 28.2147216,167.069945 28.2403564,167.044226 L28.4838867,166.722734 C29.7912663,164.965235 30.6713845,164.086498 31.1242676,164.086498 C31.4147964,164.086498 31.6625966,164.21938 31.8676758,164.485149 C32.0727549,164.750917 32.175293,165.068119 32.175293,165.436765 C32.175293,165.985448 31.8548616,166.748448 31.2139893,167.725789 C32.2222951,166.328363 32.997739,165.372469 33.5403442,164.858079 C34.0829495,164.343689 34.5849586,164.086498 35.0463867,164.086498 C35.4223652,164.086498 35.7385241,164.240813 35.994873,164.549447 C36.251222,164.858081 36.3793945,165.239581 36.3793945,165.693959 C36.3793945,166.268361 35.9863321,167.147097 35.2001953,168.330194 C34.3969686,169.539011 33.9953613,170.310584 33.9953613,170.644937 C33.9953613,170.996437 34.1705305,171.172184 34.520874,171.172184 C35.2813759,171.172184 36.5930083,169.813358 38.4558105,167.095664 C38.4985354,167.009933 38.5412596,166.967068 38.5839844,166.967068 C38.6352542,166.967068 38.6608887,166.992787 38.6608887,167.044226 Z M44.7619629,166.144048 C44.7619629,167.541474 43.894662,168.81457 42.1600342,169.963374 C40.750115,170.897849 39.6478311,171.36508 38.8531494,171.36508 C38.3062717,171.36508 38.0328369,171.107889 38.0328369,170.593499 C38.0328369,170.439182 38.0755611,170.229142 38.1610107,169.963374 L33.2519531,178.180712 C32.9528794,178.112127 32.7093515,178.077835 32.5213623,178.077835 C32.2393785,178.077835 31.9616713,178.129273 31.6882324,178.232151 L42.2113037,160.871577 C42.4420178,160.948736 42.6684559,160.987314 42.890625,160.987314 C43.121339,160.987314 43.4033186,160.948736 43.7365723,160.871577 L39.9298096,167.044226 C40.8441208,165.826836 41.5084818,165.029544 41.9229126,164.652324 C42.3373434,164.275105 42.7496317,164.086498 43.15979,164.086498 C43.6126732,164.086498 43.9929184,164.283678 44.3005371,164.678044 C44.6081558,165.072409 44.7619629,165.561073 44.7619629,166.144048 Z M43.8134766,165.115273 C43.8134766,164.558017 43.5656763,164.279394 43.0700684,164.279394 C42.4462859,164.279394 41.3995435,165.286725 39.9298096,167.301419 C38.7933293,168.861736 38.2250977,169.933365 38.2250977,170.516341 C38.2250977,170.953572 38.4259013,171.172184 38.8275146,171.172184 C39.6136514,171.172184 40.641168,170.402754 41.9100952,168.863871 C43.1790225,167.324988 43.8134766,166.075468 43.8134766,165.115273 Z M53.8366699,167.044226 C53.8366699,167.241409 53.2171693,168.072993 51.9781494,169.539004 C50.9527537,170.756394 50.1409942,171.36508 49.5428467,171.36508 C49.1668682,171.36508 48.8485731,171.212908 48.5879517,170.908561 C48.3273302,170.604213 48.1970215,170.237716 48.1970215,169.809058 C48.1970215,169.474704 48.3636458,169.007474 48.6968994,168.407352 L48.4405518,168.754564 C47.654415,169.766197 47.0776386,170.443467 46.7102051,170.786394 C46.3085917,171.172186 45.9283465,171.36508 45.569458,171.36508 C45.1934796,171.36508 44.8773206,171.217195 44.6209717,170.921421 C44.3646227,170.625646 44.2364502,170.263436 44.2364502,169.834777 C44.2364502,169.337534 44.428709,168.767427 44.8132324,168.124439 L47.1459961,164.189376 C47.4365249,164.249388 47.6629631,164.279394 47.8253174,164.279394 C47.9876717,164.279394 48.2781961,164.249388 48.6968994,164.189376 L45.6463623,169.230372 C45.3387436,169.744762 45.1849365,170.199133 45.1849365,170.593499 C45.1849365,170.979291 45.3472884,171.172184 45.6719971,171.172184 C46.5350385,171.172184 47.919302,169.556167 49.8248291,166.324083 L51.0809326,164.189376 C51.3458265,164.249388 51.5679923,164.279394 51.7474365,164.279394 C51.9610606,164.279394 52.2644023,164.249388 52.6574707,164.189376 L50.6066895,167.545753 C49.6325635,169.140362 49.1455078,170.16484 49.1455078,170.619218 C49.1455078,170.987864 49.320677,171.172184 49.6710205,171.172184 C50.3546177,171.172184 51.4654464,170.091982 53.00354,167.931544 L53.4008789,167.378578 L53.6315918,167.095664 C53.6743166,167.009933 53.7170408,166.967068 53.7597656,166.967068 C53.8110354,166.967068 53.8366699,166.992787 53.8366699,167.044226 Z M58.5662842,164.086498 L58.4637451,164.279394 L56.784668,164.279394 L53.9263916,169.178933 C53.5760481,169.770482 53.4008789,170.241999 53.4008789,170.593499 C53.4008789,170.979291 53.6016826,171.172184 54.0032959,171.172184 C54.7808877,171.172184 56.0925201,169.813358 57.9382324,167.095664 C57.9980472,167.009933 58.0493162,166.967068 58.092041,166.967068 C58.1433108,166.967068 58.1689453,166.992787 58.1689453,167.044226 C58.1604003,167.069945 58.1176762,167.13853 58.0407715,167.249981 L57.489624,168.008702 C55.8831707,170.246298 54.6740763,171.36508 53.8623047,171.36508 C53.4606914,171.36508 53.1253065,171.219338 52.8561401,170.92785 C52.5869738,170.636363 52.4523926,170.272009 52.4523926,169.834777 C52.4523926,169.320387 52.6788307,168.677409 53.1317139,167.905825 L55.2850342,164.279394 L53.9776611,164.279394 L54.105835,164.086498 L55.3875732,164.086498 L56.887207,161.59172 C57.143556,161.660305 57.3870838,161.694597 57.6177979,161.694597 C57.8570569,161.694597 58.1048571,161.660305 58.3612061,161.59172 L56.887207,164.086498 L58.5662842,164.086498 Z M62.5012207,162.041808 C62.5012207,162.384735 61.9671684,163.066292 60.8990479,164.086498 C60.8477781,164.352266 60.8221436,164.583738 60.8221436,164.780921 C60.8221436,165.278165 61.0485817,166.066884 61.5014648,167.147103 C61.7321789,167.687213 61.8475342,168.141584 61.8475342,168.51023 C61.8475342,169.281815 61.4736976,169.950512 60.7260132,170.516341 C59.9783288,171.082169 59.091802,171.36508 58.0664062,171.36508 C57.4853487,171.36508 57.0217913,171.200049 56.6757202,170.869982 C56.3296491,170.539915 56.1566162,170.09626 56.1566162,169.539004 C56.1566162,168.896017 56.3851906,168.270185 56.8423462,167.661491 C57.2995018,167.052796 57.771604,166.748453 58.258667,166.748453 C58.3441166,166.748453 58.4210202,166.765599 58.4893799,166.799892 L59.5147705,165.539643 C59.8223892,165.170997 60.2325414,164.660901 60.7452393,164.00934 C60.8905037,163.409219 61.1126694,162.894836 61.4117432,162.466178 C61.7108169,162.03752 62.0056138,161.823194 62.2961426,161.823194 C62.432862,161.823194 62.5012207,161.896065 62.5012207,162.041808 Z M60.7196045,167.121384 C60.7196045,166.864189 60.7110597,166.609141 60.6939697,166.356233 C60.6768798,166.103324 60.668335,165.741113 60.668335,165.269589 C60.668335,164.883797 60.6854246,164.562308 60.7196045,164.305113 C60.2410865,164.913808 59.5489547,165.771111 58.6431885,166.87705 C58.8055428,167.01422 58.8867188,167.181395 58.8867188,167.378578 C58.8867188,167.884394 58.4722942,168.227316 57.6434326,168.407352 C57.310179,168.484511 57.0217908,168.666688 56.7782593,168.953889 C56.5347278,169.24109 56.4129639,169.543289 56.4129639,169.860497 C56.4129639,170.203423 56.536864,170.49062 56.784668,170.722095 C57.0324719,170.953571 57.3400861,171.069307 57.7075195,171.069307 C58.4252966,171.069307 59.1067473,170.651371 59.7518921,169.815488 C60.3970369,168.979604 60.7196045,168.081578 60.7196045,167.121384 Z" id="inputs" fill="#F7F1F1"></path>
            <path d="M30.7049561,259.077912 C30.7049561,259.215083 30.4528834,259.536572 29.9487305,260.042389 C29.1967736,260.796827 28.5046418,261.174041 27.8723145,261.174041 C27.6074206,261.174041 27.3724375,261.122603 27.1673584,261.019725 C26.0394231,262.622907 24.9798634,263.424486 23.9886475,263.424486 C23.4759496,263.424486 23.0380267,263.212303 22.6748657,262.787931 C22.3117047,262.36356 22.130127,261.855607 22.130127,261.264059 C22.130127,259.943791 22.9931554,258.670695 24.7192383,257.444732 C25.9326233,256.578843 26.9323691,256.145904 27.7185059,256.145904 C28.4533728,256.145904 28.8208008,256.540264 28.8208008,257.328995 C28.8208008,258.314909 28.3038382,259.502275 27.2698975,260.891128 C27.4407968,260.994006 27.6330556,261.045444 27.8466797,261.045444 C28.2312031,261.045444 28.679807,260.86541 29.1925049,260.505337 C29.7052028,260.145264 30.1238997,259.712326 30.4486084,259.206509 C30.542603,259.086485 30.6109617,259.026474 30.6536865,259.026474 C30.6878664,259.026474 30.7049561,259.04362 30.7049561,259.077912 Z M28.62854,257.354715 C28.62854,256.660288 28.3166535,256.31308 27.6928711,256.31308 C26.9152793,256.31308 25.9668025,257.058934 24.8474121,258.550665 C23.7280217,260.042396 23.168335,261.298346 23.168335,262.318553 C23.168335,262.910101 23.4503146,263.205871 24.0142822,263.205871 C24.9371384,263.205871 25.9454291,262.442871 27.0391846,260.916847 C26.7913806,260.642506 26.6674805,260.359596 26.6674805,260.068108 C26.6674805,259.648023 26.8341048,259.215084 27.1673584,258.76928 C27.500612,258.323475 27.8253158,258.100576 28.1414795,258.100576 C28.2781989,258.100576 28.3721921,258.186307 28.4234619,258.35777 C28.5601813,258.057709 28.62854,257.723361 28.62854,257.354715 Z M38.9465332,259.103632 C38.9465332,259.300814 38.3270326,260.132399 37.0880127,261.59841 C36.0626169,262.8158 35.2508575,263.424486 34.65271,263.424486 C34.2767315,263.424486 33.9584364,263.272314 33.6978149,262.967967 C33.4371935,262.663619 33.3068848,262.297122 33.3068848,261.868464 C33.3068848,261.53411 33.4735091,261.06688 33.8067627,260.466758 L33.550415,260.81397 C32.7642783,261.825603 32.1875018,262.502873 31.8200684,262.8458 C31.418455,263.231592 31.0382098,263.424486 30.6793213,263.424486 C30.3033428,263.424486 29.9871839,263.276601 29.730835,262.980827 C29.474486,262.685052 29.3463135,262.322841 29.3463135,261.894183 C29.3463135,261.39694 29.5385723,260.826833 29.9230957,260.183845 L32.2558594,256.248782 C32.5463882,256.308794 32.7728263,256.3388 32.9351807,256.3388 C33.097535,256.3388 33.3880594,256.308794 33.8067627,256.248782 L30.7562256,261.289778 C30.4486069,261.804168 30.2947998,262.258539 30.2947998,262.652905 C30.2947998,263.038697 30.4571517,263.23159 30.7818604,263.23159 C31.6449018,263.23159 33.0291653,261.615573 34.9346924,258.383489 L36.1907959,256.248782 C36.4556898,256.308794 36.6778555,256.3388 36.8572998,256.3388 C37.0709239,256.3388 37.3742656,256.308794 37.767334,256.248782 L35.7165527,259.605159 C34.7424268,261.199768 34.2553711,262.224246 34.2553711,262.678624 C34.2553711,263.04727 34.4305402,263.23159 34.7808838,263.23159 C35.464481,263.23159 36.5753097,262.151388 38.1134033,259.99095 L38.5107422,259.437983 L38.7414551,259.15507 C38.7841799,259.069339 38.8269041,259.026474 38.8696289,259.026474 C38.9208987,259.026474 38.9465332,259.052193 38.9465332,259.103632 Z M43.6761475,256.145904 L43.5736084,256.3388 L41.8945312,256.3388 L39.0362549,261.238339 C38.6859113,261.829888 38.5107422,262.301405 38.5107422,262.652905 C38.5107422,263.038697 38.7115458,263.23159 39.1131592,263.23159 C39.890751,263.23159 41.2023833,261.872764 43.0480957,259.15507 C43.1079105,259.069339 43.1591795,259.026474 43.2019043,259.026474 C43.2531741,259.026474 43.2788086,259.052193 43.2788086,259.103632 C43.2702636,259.129351 43.2275394,259.197935 43.1506348,259.309387 L42.5994873,260.068108 C40.993034,262.305704 39.7839396,263.424486 38.972168,263.424486 C38.5705546,263.424486 38.2351698,263.278744 37.9660034,262.987256 C37.696837,262.695769 37.5622559,262.331415 37.5622559,261.894183 C37.5622559,261.379793 37.788694,260.736815 38.2415771,259.965231 L40.3948975,256.3388 L39.0875244,256.3388 L39.2156982,256.145904 L40.4974365,256.145904 L41.9970703,253.651125 C42.2534193,253.719711 42.4969471,253.754003 42.7276611,253.754003 C42.9669201,253.754003 43.2147204,253.719711 43.4710693,253.651125 L41.9970703,256.145904 L43.6761475,256.145904 Z M49.3798828,258.203454 C49.3798828,259.60088 48.5125819,260.873976 46.7779541,262.02278 C45.3680349,262.957255 44.265751,263.424486 43.4710693,263.424486 C42.9241916,263.424486 42.6507568,263.167294 42.6507568,262.652905 C42.6507568,262.498588 42.693481,262.288548 42.7789307,262.02278 L37.869873,270.240118 C37.5707993,270.171533 37.3272714,270.137241 37.1392822,270.137241 C36.8572984,270.137241 36.5795912,270.188679 36.3061523,270.291557 L46.8292236,252.930983 C47.0599377,253.008142 47.2863758,253.04672 47.5085449,253.04672 C47.739259,253.04672 48.0212386,253.008142 48.3544922,252.930983 L44.5477295,259.103632 C45.4620407,257.886242 46.1264017,257.08895 46.5408325,256.71173 C46.9552633,256.334511 47.3675517,256.145904 47.77771,256.145904 C48.2305931,256.145904 48.6108383,256.343084 48.918457,256.73745 C49.2260758,257.131815 49.3798828,257.620478 49.3798828,258.203454 Z M48.4313965,257.174679 C48.4313965,256.617423 48.1835962,256.3388 47.6879883,256.3388 C47.0642059,256.3388 46.0174634,257.346131 44.5477295,259.360825 C43.4112492,260.921142 42.8430176,261.992771 42.8430176,262.575746 C42.8430176,263.012978 43.0438212,263.23159 43.4454346,263.23159 C44.2315713,263.23159 45.2590879,262.46216 46.5280151,260.923277 C47.7969424,259.384394 48.4313965,258.134874 48.4313965,257.174679 Z M58.4545898,259.103632 C58.4545898,259.300814 57.8350892,260.132399 56.5960693,261.59841 C55.5706736,262.8158 54.7589141,263.424486 54.1607666,263.424486 C53.7847882,263.424486 53.466493,263.272314 53.2058716,262.967967 C52.9452502,262.663619 52.8149414,262.297122 52.8149414,261.868464 C52.8149414,261.53411 52.9815657,261.06688 53.3148193,260.466758 L53.0584717,260.81397 C52.2723349,261.825603 51.6955585,262.502873 51.328125,262.8458 C50.9265117,263.231592 50.5462664,263.424486 50.1873779,263.424486 C49.8113995,263.424486 49.4952405,263.276601 49.2388916,262.980827 C48.9825427,262.685052 48.8543701,262.322841 48.8543701,261.894183 C48.8543701,261.39694 49.0466289,260.826833 49.4311523,260.183845 L51.763916,256.248782 C52.0544448,256.308794 52.280883,256.3388 52.4432373,256.3388 C52.6055916,256.3388 52.8961161,256.308794 53.3148193,256.248782 L50.2642822,261.289778 C49.9566635,261.804168 49.8028564,262.258539 49.8028564,262.652905 C49.8028564,263.038697 49.9652083,263.23159 50.289917,263.23159 C51.1529584,263.23159 52.5372219,261.615573 54.442749,258.383489 L55.6988525,256.248782 C55.9637464,256.308794 56.1859122,256.3388 56.3653564,256.3388 C56.5789806,256.3388 56.8823223,256.308794 57.2753906,256.248782 L55.2246094,259.605159 C54.2504834,261.199768 53.7634277,262.224246 53.7634277,262.678624 C53.7634277,263.04727 53.9385969,263.23159 54.2889404,263.23159 C54.9725376,263.23159 56.0833663,262.151388 57.62146,259.99095 L58.0187988,259.437983 L58.2495117,259.15507 C58.2922365,259.069339 58.3349607,259.026474 58.3776855,259.026474 C58.4289553,259.026474 58.4545898,259.052193 58.4545898,259.103632 Z M63.1842041,256.145904 L63.081665,256.3388 L61.4025879,256.3388 L58.5443115,261.238339 C58.193968,261.829888 58.0187988,262.301405 58.0187988,262.652905 C58.0187988,263.038697 58.2196025,263.23159 58.6212158,263.23159 C59.3988076,263.23159 60.71044,261.872764 62.5561523,259.15507 C62.6159671,259.069339 62.6672361,259.026474 62.7099609,259.026474 C62.7612307,259.026474 62.7868652,259.052193 62.7868652,259.103632 C62.7783203,259.129351 62.7355961,259.197935 62.6586914,259.309387 L62.1075439,260.068108 C60.5010906,262.305704 59.2919962,263.424486 58.4802246,263.424486 C58.0786113,263.424486 57.7432264,263.278744 57.4740601,262.987256 C57.2048937,262.695769 57.0703125,262.331415 57.0703125,261.894183 C57.0703125,261.379793 57.2967507,260.736815 57.7496338,259.965231 L59.9029541,256.3388 L58.5955811,256.3388 L58.7237549,256.145904 L60.0054932,256.145904 L61.505127,253.651125 C61.7614759,253.719711 62.0050037,253.754003 62.2357178,253.754003 C62.4749768,253.754003 62.722777,253.719711 62.979126,253.651125 L61.505127,256.145904 L63.1842041,256.145904 Z M67.1191406,254.101214 C67.1191406,254.444141 66.5850883,255.125698 65.5169678,256.145904 C65.465698,256.411672 65.4400635,256.643144 65.4400635,256.840327 C65.4400635,257.337571 65.6665016,258.12629 66.1193848,259.206509 C66.3500988,259.746619 66.4654541,260.20099 66.4654541,260.569636 C66.4654541,261.341221 66.0916175,262.009917 65.3439331,262.575746 C64.5962487,263.141575 63.7097219,263.424486 62.6843262,263.424486 C62.1032686,263.424486 61.6397112,263.259455 61.2936401,262.929388 C60.9475691,262.599321 60.7745361,262.155666 60.7745361,261.59841 C60.7745361,260.955423 61.0031105,260.329591 61.4602661,259.720897 C61.9174217,259.112202 62.3895239,258.807859 62.8765869,258.807859 C62.9620366,258.807859 63.0389401,258.825005 63.1072998,258.859298 L64.1326904,257.599049 C64.4403092,257.230402 64.8504613,256.720307 65.3631592,256.068746 C65.5084236,255.468625 65.7305893,254.954242 66.0296631,254.525584 C66.3287368,254.096926 66.6235337,253.8826 66.9140625,253.8826 C67.0507819,253.8826 67.1191406,253.955471 67.1191406,254.101214 Z M65.3375244,259.18079 C65.3375244,258.923595 65.3289796,258.668547 65.3118896,258.415639 C65.2947997,258.16273 65.2862549,257.800519 65.2862549,257.328995 C65.2862549,256.943203 65.3033446,256.621714 65.3375244,256.364519 C64.8590064,256.973214 64.1668746,257.830517 63.2611084,258.936456 C63.4234627,259.073626 63.5046387,259.240801 63.5046387,259.437983 C63.5046387,259.9438 63.0902141,260.286722 62.2613525,260.466758 C61.9280989,260.543917 61.6397107,260.726094 61.3961792,261.013295 C61.1526477,261.300496 61.0308838,261.602695 61.0308838,261.919903 C61.0308838,262.262829 61.1547839,262.550026 61.4025879,262.781501 C61.6503919,263.012977 61.958006,263.128713 62.3254395,263.128713 C63.0432165,263.128713 63.7246672,262.710777 64.369812,261.874894 C65.0149568,261.03901 65.3375244,260.140984 65.3375244,259.18079 Z" id="outputs" fill="#F7F1F1"></path>
            <path d="M11.217041,74.0110145 L9.85748291,74.0110145 L9.85748291,73.3542521 L12.0227051,73.3542521 L12.0227051,79.177852 L13.3914185,79.177852 L13.3914185,79.8437999 L9.7064209,79.8437999 L9.7064209,79.177852 L11.217041,79.177852 L11.217041,74.0110145 Z M18.8067627,77.5015003 C18.8067627,77.8597361 18.7564092,78.1881141 18.6557007,78.486644 C18.5549922,78.7851738 18.4100351,79.0408341 18.2208252,79.2536323 C18.0316153,79.4664305 17.8012099,79.6317676 17.5296021,79.7496487 C17.2579942,79.8675297 16.9497698,79.9264693 16.6049194,79.9264693 C16.2753279,79.9264693 15.9800733,79.8751842 15.7191467,79.7726124 C15.4582201,79.6700406 15.2369699,79.519247 15.0553894,79.3202271 C14.8738089,79.1212072 14.7349553,78.8747323 14.6388245,78.5807952 C14.5426936,78.2868581 14.4946289,77.9485293 14.4946289,77.5657987 C14.4946289,77.2075628 14.5449824,76.8807158 14.6456909,76.5852478 C14.7463994,76.2897797 14.8913565,76.0356504 15.0805664,75.8228522 C15.2697763,75.610054 15.5001817,75.4447168 15.7717896,75.3268358 C16.0433974,75.2089548 16.3516218,75.1500151 16.6964722,75.1500151 C17.0260637,75.1500151 17.3213183,75.2013003 17.5822449,75.3038721 C17.8431715,75.4064439 18.0644217,75.556472 18.2460022,75.753961 C18.4275827,75.95145 18.5664363,76.1971594 18.6625671,76.4910965 C18.758698,76.7850336 18.8067627,77.1218315 18.8067627,77.5015003 Z M17.9919434,77.5382422 C17.9919434,77.2534907 17.9606632,77.0047195 17.8981018,76.7919213 C17.8355405,76.579123 17.7462774,76.4015387 17.6303101,76.2591629 C17.5143427,76.1167871 17.3732003,76.0096242 17.2068787,75.9376708 C17.040557,75.8657174 16.8551646,75.8297413 16.6506958,75.8297413 C16.4126575,75.8297413 16.2089547,75.8764337 16.0395813,75.96982 C15.8702079,76.0632063 15.7313543,76.1879746 15.6230164,76.3441287 C15.5146784,76.5002828 15.4353335,76.6816944 15.3849792,76.8883689 C15.334625,77.0950434 15.3094482,77.3116657 15.3094482,77.5382422 C15.3094482,77.8229938 15.3407284,78.0725304 15.4032898,78.2868596 C15.4658511,78.5011887 15.5551142,78.6795385 15.6710815,78.8219143 C15.7870489,78.9642901 15.9274284,79.0714531 16.0922241,79.1434064 C16.2570199,79.2153598 16.4431752,79.2513359 16.6506958,79.2513359 C16.8887341,79.2513359 17.0924369,79.2046435 17.2618103,79.1112572 C17.4311837,79.0178709 17.5700373,78.8931026 17.6783752,78.7369485 C17.7867132,78.5807944 17.8660581,78.3993828 17.9164124,78.1927083 C17.9667666,77.9860338 17.9919434,77.7678806 17.9919434,77.5382422 Z M23.5308838,79.6738684 C23.3233632,79.7534764 23.1105052,79.812416 22.8923035,79.8506891 C22.6741017,79.8889621 22.4490368,79.9080984 22.2171021,79.9080984 C21.4907801,79.9080984 20.931551,79.7106123 20.5393982,79.3156343 C20.1472454,78.9206563 19.9511719,78.3435072 19.9511719,77.5841697 C19.9511719,77.2198101 20.0076288,76.8891358 20.1205444,76.5921369 C20.23346,76.2951379 20.3921499,76.0410086 20.5966187,75.8297413 C20.8010874,75.618474 21.0452256,75.4554332 21.3290405,75.340614 C21.6128554,75.2257948 21.9256575,75.1683861 22.2674561,75.1683861 C22.5054944,75.1683861 22.7282704,75.185226 22.935791,75.2189063 C23.1433116,75.2525866 23.3416739,75.307699 23.5308838,75.3842451 L23.5308838,76.1466407 C23.3325185,76.0425379 23.1303416,75.9667584 22.9243469,75.9192998 C22.7183522,75.8718412 22.5054943,75.8481123 22.2857666,75.8481123 C22.0812978,75.8481123 21.8882761,75.8871502 21.7066956,75.9652273 C21.5251151,76.0433043 21.3656623,76.1558254 21.2283325,76.302794 C21.0910027,76.4497625 20.9826664,76.6288778 20.9033203,76.8401451 C20.8239742,77.0514124 20.7843018,77.2902327 20.7843018,77.5566132 C20.7843018,78.113869 20.9193407,78.5310391 21.1894226,78.8081361 C21.4595045,79.085233 21.834104,79.2237794 22.3132324,79.2237794 C22.5299083,79.2237794 22.7397146,79.199285 22.9426575,79.1502955 C23.1456004,79.101306 23.3416739,79.0278228 23.5308838,78.9298438 L23.5308838,79.6738684 Z M28.0673218,79.8437999 L28.0490112,79.2237794 C27.7987658,79.4717889 27.5447095,79.6509041 27.2868347,79.7611305 C27.0289599,79.871357 26.7581191,79.9264693 26.4743042,79.9264693 C26.2118517,79.9264693 25.9875498,79.8927895 25.8013916,79.825429 C25.6152334,79.7580684 25.4618841,79.665449 25.3413391,79.5475679 C25.2207941,79.4296869 25.132294,79.2911405 25.0758362,79.1319246 C25.0193784,78.9727086 24.9911499,78.799717 24.9911499,78.6129444 C24.9911499,78.1506058 25.1628096,77.7885481 25.506134,77.5267604 C25.8494585,77.2649726 26.3568082,77.1340807 27.0281982,77.1340807 L27.9803467,77.1340807 L27.9803467,76.7299192 C27.9803467,76.457415 27.8933725,76.2392618 27.7194214,76.0754531 C27.5454703,75.9116444 27.27997,75.8297413 26.9229126,75.8297413 C26.6635119,75.8297413 26.4079297,75.8588284 26.1561584,75.9170034 C25.9043872,75.9751785 25.6442274,76.0578471 25.3756714,76.1650116 L25.3756714,75.4439508 C25.4763799,75.4072086 25.5885309,75.3712325 25.7121277,75.3360213 C25.8357245,75.3008101 25.9661858,75.2694266 26.1035156,75.24187 C26.2408454,75.2143134 26.3842766,75.1921154 26.5338135,75.1752752 C26.6833504,75.1584351 26.8344109,75.1500151 26.9869995,75.1500151 C27.2647109,75.1500151 27.5149525,75.1806331 27.7377319,75.24187 C27.9605114,75.3031069 28.1489555,75.3964918 28.3030701,75.5220274 C28.4571846,75.6475631 28.575439,75.8052457 28.6578369,75.9950801 C28.7402348,76.1849145 28.7814331,76.4084258 28.7814331,76.6656208 L28.7814331,79.8437999 L28.0673218,79.8437999 Z M27.9803467,77.7449157 L26.968689,77.7449157 C26.7703237,77.7449157 26.599427,77.7648174 26.4559937,77.8046214 C26.3125603,77.8444254 26.1950688,77.9010687 26.1035156,77.974553 C26.0119624,78.0480372 25.9440615,78.136064 25.8998108,78.2386358 C25.8555601,78.3412076 25.8334351,78.4567905 25.8334351,78.585388 C25.8334351,78.6741815 25.8471678,78.7591464 25.8746338,78.8402853 C25.9020997,78.9214242 25.9463498,78.9933764 26.0073853,79.0561443 C26.0684207,79.1189121 26.1477656,79.1686663 26.2454224,79.2054085 C26.3430791,79.2421506 26.4620965,79.2605214 26.602478,79.2605214 C26.7855844,79.2605214 26.9953907,79.2046436 27.2319031,79.0928862 C27.4684155,78.9811289 27.7178942,78.80431 27.9803467,78.5624242 L27.9803467,77.7449157 Z M31.8347168,74.0110145 L30.4751587,74.0110145 L30.4751587,73.3542521 L32.6403809,73.3542521 L32.6403809,79.177852 L34.0090942,79.177852 L34.0090942,79.8437999 L30.3240967,79.8437999 L30.3240967,79.177852 L31.8347168,79.177852 L31.8347168,74.0110145 Z M39.1177368,79.8437999 L38.321228,79.8437999 L38.321228,76.8998508 C38.321228,76.5446767 38.254853,76.2790657 38.1221008,76.1030096 C37.9893487,75.9269535 37.7993787,75.8389268 37.5521851,75.8389268 C37.445373,75.8389268 37.3454289,75.8534703 37.2523499,75.8825579 C37.1592708,75.9116454 37.0623784,75.9621651 36.9616699,76.0341184 C36.8609614,76.1060718 36.7510992,76.2032839 36.6320801,76.3257577 C36.5130609,76.4482315 36.3757332,76.6013215 36.2200928,76.7850321 L36.2200928,79.8437999 L35.423584,79.8437999 L35.423584,73.3542521 L36.2200928,73.3542521 L36.2200928,75.2326845 L36.192627,75.9583381 C36.3177496,75.8083077 36.4405817,75.6820085 36.5611267,75.5794367 C36.6816717,75.4768649 36.802215,75.3934309 36.92276,75.3291322 C37.043305,75.2648334 37.1661371,75.2189064 37.2912598,75.1913498 C37.4163825,75.1637932 37.5460809,75.1500151 37.6803589,75.1500151 C38.1381248,75.1500151 38.4921252,75.2900924 38.7423706,75.5702512 C38.992616,75.8504101 39.1177368,76.2721729 39.1177368,76.8355523 L39.1177368,79.8437999 Z M44.5788574,77.5015003 C44.5788574,77.8597361 44.5285039,78.1881141 44.4277954,78.486644 C44.3270869,78.7851738 44.1821299,79.0408341 43.9929199,79.2536323 C43.80371,79.4664305 43.5733046,79.6317676 43.3016968,79.7496487 C43.030089,79.8675297 42.7218645,79.9264693 42.3770142,79.9264693 C42.0474227,79.9264693 41.7521681,79.8751842 41.4912415,79.7726124 C41.2303149,79.6700406 41.0090646,79.519247 40.8274841,79.3202271 C40.6459036,79.1212072 40.50705,78.8747323 40.4109192,78.5807952 C40.3147883,78.2868581 40.2667236,77.9485293 40.2667236,77.5657987 C40.2667236,77.2075628 40.3170771,76.8807158 40.4177856,76.5852478 C40.5184942,76.2897797 40.6634512,76.0356504 40.8526611,75.8228522 C41.0418711,75.610054 41.2722765,75.4447168 41.5438843,75.3268358 C41.8154921,75.2089548 42.1237165,75.1500151 42.4685669,75.1500151 C42.7981584,75.1500151 43.093413,75.2013003 43.3543396,75.3038721 C43.6152662,75.4064439 43.8365164,75.556472 44.0180969,75.753961 C44.1996774,75.95145 44.338531,76.1971594 44.4346619,76.4910965 C44.5307927,76.7850336 44.5788574,77.1218315 44.5788574,77.5015003 Z M43.7640381,77.5382422 C43.7640381,77.2534907 43.7327579,77.0047195 43.6701965,76.7919213 C43.6076352,76.579123 43.5183722,76.4015387 43.4024048,76.2591629 C43.2864374,76.1167871 43.145295,76.0096242 42.9789734,75.9376708 C42.8126518,75.8657174 42.6272593,75.8297413 42.4227905,75.8297413 C42.1847522,75.8297413 41.9810494,75.8764337 41.811676,75.96982 C41.6423026,76.0632063 41.503449,76.1879746 41.3951111,76.3441287 C41.2867731,76.5002828 41.2074282,76.6816944 41.157074,76.8883689 C41.1067197,77.0950434 41.081543,77.3116657 41.081543,77.5382422 C41.081543,77.8229938 41.1128232,78.0725304 41.1753845,78.2868596 C41.2379459,78.5011887 41.3272089,78.6795385 41.4431763,78.8219143 C41.5591436,78.9642901 41.6995231,79.0714531 41.8643188,79.1434064 C42.0291146,79.2153598 42.21527,79.2513359 42.4227905,79.2513359 C42.6608288,79.2513359 42.8645316,79.2046435 43.033905,79.1112572 C43.2032784,79.0178709 43.342132,78.8931026 43.45047,78.7369485 C43.5588079,78.5807944 43.6381528,78.3993828 43.6885071,78.1927083 C43.7388613,77.9860338 43.7640381,77.7678806 43.7640381,77.5382422 Z M49.3716431,78.585388 C49.3716431,78.7476657 49.3441775,78.8931012 49.2892456,79.0216987 C49.2343137,79.1502962 49.1595464,79.2643482 49.0649414,79.3638581 C48.9703364,79.4633681 48.8604743,79.548333 48.7353516,79.6187555 C48.6102289,79.6891779 48.4767158,79.7473521 48.3348083,79.7932797 C48.1929009,79.8392074 48.0471809,79.8728872 47.897644,79.8943201 C47.7481072,79.915753 47.6016243,79.9264693 47.4581909,79.9264693 C47.1469101,79.9264693 46.8608106,79.9126912 46.599884,79.8851346 C46.3389574,79.857578 46.0833753,79.8131819 45.8331299,79.751945 L45.8331299,79.0171059 C46.1016859,79.0936521 46.3687121,79.1518262 46.6342163,79.1916302 C46.8997206,79.2314342 47.163695,79.2513359 47.4261475,79.2513359 C47.8076191,79.2513359 48.0899039,79.1992853 48.2730103,79.0951826 C48.4561166,78.9910799 48.5476685,78.8425826 48.5476685,78.6496864 C48.5476685,78.5670166 48.5331728,78.4927679 48.5041809,78.4269383 C48.4751891,78.3611086 48.4225468,78.2983417 48.3462524,78.2386358 C48.2699581,78.1789298 48.1517037,78.1169284 47.9914856,78.0526296 C47.8312675,77.9883309 47.6123061,77.9148477 47.3345947,77.8321779 C47.1270742,77.770941 46.9355783,77.7012851 46.7601013,77.623208 C46.5846244,77.545131 46.4328009,77.4525115 46.3046265,77.345347 C46.176452,77.2381824 46.075745,77.1126486 46.0025024,76.9687419 C45.9292599,76.8248352 45.8926392,76.6549054 45.8926392,76.4589473 C45.8926392,76.3303498 45.9223935,76.1895071 45.9819031,76.0364148 C46.0414127,75.8833226 46.1428826,75.7409489 46.2863159,75.6092896 C46.4297493,75.4776302 46.6235339,75.3681709 46.8676758,75.2809083 C47.1118176,75.1936458 47.4169904,75.1500151 47.7832031,75.1500151 C47.9632577,75.1500151 48.1631459,75.159966 48.3828735,75.179868 C48.6026012,75.19977 48.8314807,75.2342152 49.069519,75.2832047 L49.069519,75.9950801 C48.8192737,75.9338432 48.5820019,75.8886817 48.3576965,75.8595941 C48.1333912,75.8305066 47.9388436,75.8159631 47.7740479,75.8159631 C47.5756826,75.8159631 47.4086005,75.8312721 47.2727966,75.8618905 C47.1369927,75.892509 47.0271305,75.9346087 46.9432068,75.988191 C46.859283,76.0417733 46.7990114,76.1045402 46.7623901,76.1764935 C46.7257689,76.2484469 46.7074585,76.3257573 46.7074585,76.4084271 C46.7074585,76.4910969 46.7234801,76.566111 46.7555237,76.6334716 C46.7875673,76.7008322 46.847076,76.7658954 46.9340515,76.8286632 C47.021027,76.891431 47.1423332,76.9541979 47.2979736,77.0169657 C47.4536141,77.0797336 47.6565539,77.1478586 47.9067993,77.2213429 C48.1784071,77.3009508 48.4072867,77.3843849 48.5934448,77.4716474 C48.779603,77.55891 48.9306635,77.6561221 49.0466309,77.7632867 C49.1625982,77.8704513 49.2457578,77.9913923 49.2961121,78.1261135 C49.3464663,78.2608347 49.3716431,78.4139246 49.3716431,78.585388 Z M54.5901489,79.7795015 C54.4100943,79.8254292 54.2239389,79.8583435 54.0316772,79.8782455 C53.8394155,79.8981475 53.644105,79.9080984 53.4457397,79.9080984 C52.8689546,79.9080984 52.4386611,79.7772065 52.1548462,79.5154187 C51.8710313,79.253631 51.729126,78.8517699 51.729126,78.3098233 L51.729126,75.9032252 L50.4428101,75.9032252 L50.4428101,75.2326845 L51.729126,75.2326845 L51.729126,73.9650871 L52.5256348,73.7584136 L52.5256348,75.2326845 L54.5901489,75.2326845 L54.5901489,75.9032252 L52.5256348,75.9032252 L52.5256348,78.2455249 C52.5256348,78.5762041 52.6133719,78.8234444 52.7888489,78.9872531 C52.9643258,79.1510618 53.2229597,79.2329649 53.5647583,79.2329649 C53.7112434,79.2329649 53.8714591,79.2214832 54.0454102,79.1985193 C54.2193612,79.1755555 54.400939,79.1395794 54.5901489,79.0905899 L54.5901489,79.7795015 Z M57.8860474,75.1500151 C57.9806523,75.1500151 58.0706783,75.1691514 58.1561279,75.2074244 C58.2415776,75.2456975 58.3163449,75.2969826 58.3804321,75.3612814 C58.4445194,75.4255801 58.4956358,75.5005942 58.533783,75.5863259 C58.5719301,75.6720575 58.5910034,75.7623806 58.5910034,75.8572978 C58.5910034,75.9552768 58.5719301,76.0463653 58.533783,76.1305661 C58.4956358,76.2147668 58.4445194,76.2890154 58.3804321,76.3533142 C58.3163449,76.4176129 58.2415776,76.4681326 58.1561279,76.5048747 C58.0706783,76.5416169 57.9806523,76.5599877 57.8860474,76.5599877 C57.7883906,76.5599877 57.6976017,76.5416169 57.613678,76.5048747 C57.5297542,76.4681326 57.4557498,76.4176129 57.3916626,76.3533142 C57.3275754,76.2890154 57.2772219,76.2147668 57.2406006,76.1305661 C57.2039793,76.0463653 57.1856689,75.9552768 57.1856689,75.8572978 C57.1856689,75.7623806 57.2039793,75.6720575 57.2406006,75.5863259 C57.2772219,75.5005942 57.3275754,75.4255801 57.3916626,75.3612814 C57.4557498,75.2969826 57.5297542,75.2456975 57.613678,75.2074244 C57.6976017,75.1691514 57.7883906,75.1500151 57.8860474,75.1500151 Z M57.8860474,78.5164968 C57.9806523,78.5164968 58.0706783,78.535633 58.1561279,78.5739061 C58.2415776,78.6121792 58.3163449,78.6634643 58.3804321,78.727763 C58.4445194,78.7920618 58.4956358,78.8670759 58.533783,78.9528075 C58.5719301,79.0385392 58.5910034,79.1288622 58.5910034,79.2237794 C58.5910034,79.3217585 58.5719301,79.412847 58.533783,79.4970477 C58.4956358,79.5812485 58.4445194,79.6554971 58.3804321,79.7197958 C58.3163449,79.7840946 58.2415776,79.8346143 58.1561279,79.8713564 C58.0706783,79.9080985 57.9806523,79.9264693 57.8860474,79.9264693 C57.7883906,79.9264693 57.6976017,79.9080985 57.613678,79.8713564 C57.5297542,79.8346143 57.4557498,79.7840946 57.3916626,79.7197958 C57.3275754,79.6554971 57.2772219,79.5812485 57.2406006,79.4970477 C57.2039793,79.412847 57.1856689,79.3217585 57.1856689,79.2237794 C57.1856689,79.1288622 57.2039793,79.0385392 57.2406006,78.9528075 C57.2772219,78.8670759 57.3275754,78.7920618 57.3916626,78.727763 C57.4557498,78.6634643 57.5297542,78.6121792 57.613678,78.5739061 C57.6976017,78.535633 57.7883906,78.5164968 57.8860474,78.5164968 Z M65.375061,78.5164968 L64.354248,78.5164968 L64.354248,79.8437999 L63.5394287,79.8437999 L63.5394287,78.5164968 L60.6600952,78.5164968 L60.6600952,77.8138069 L63.2098389,73.841083 L64.354248,73.841083 L64.354248,77.8138069 L65.375061,77.8138069 L65.375061,78.5164968 Z M63.5394287,74.612664 L61.456604,77.8138069 L63.5394287,77.8138069 L63.5394287,74.612664 Z M70.3692627,76.8447378 C70.3692627,77.3040146 70.3234868,77.7227156 70.2319336,78.1008534 C70.1403804,78.4789913 70.0015268,78.803542 69.8153687,79.0745152 C69.6292105,79.3454885 69.3980422,79.5552218 69.1218567,79.7037212 C68.8456712,79.8522207 68.5214252,79.9264693 68.1491089,79.9264693 C67.8286727,79.9264693 67.5372328,79.8659988 67.2747803,79.7450559 C67.0123278,79.6241131 66.7880258,79.4381088 66.6018677,79.1870375 C66.4157095,78.9359662 66.2722783,78.6160082 66.1715698,78.2271539 C66.0708613,77.8382996 66.0205078,77.3774988 66.0205078,76.8447378 C66.0205078,76.3854611 66.0670467,75.9659946 66.1601257,75.5863259 C66.2532048,75.2066571 66.3920584,74.8813409 66.5766907,74.6103677 C66.7613229,74.3393944 66.9924913,74.1296612 67.2702026,73.9811617 C67.547914,73.8326622 67.8713971,73.7584136 68.2406616,73.7584136 C68.5610978,73.7584136 68.8525378,73.8188841 69.1149902,73.939827 C69.3774427,74.0607698 69.6017447,74.2475396 69.7879028,74.5001418 C69.974061,74.752744 70.1174922,75.0734674 70.2182007,75.4623218 C70.3189092,75.8511761 70.3692627,76.3119768 70.3692627,76.8447378 Z M69.5635986,76.8722943 C69.5635986,76.7681916 69.559784,76.6648558 69.5521545,76.562284 C69.5445251,76.4597122 69.5361329,76.3594383 69.5269775,76.2614593 L66.9955444,78.1490772 C67.041321,78.3082932 67.0993038,78.4552595 67.1694946,78.5899807 C67.2396854,78.7247019 67.3243708,78.8402848 67.4235535,78.9367329 C67.5227361,79.033181 67.63565,79.1081951 67.7622986,79.1617774 C67.8889472,79.2153597 68.0331413,79.2421504 68.1948853,79.2421504 C68.4024058,79.2421504 68.59085,79.1916307 68.7602234,79.0905899 C68.9295968,78.989549 69.0737909,78.8395208 69.1928101,78.6405009 C69.3118292,78.441481 69.403381,78.1942407 69.4674683,77.8987727 C69.5315555,77.6033046 69.5635986,77.2611486 69.5635986,76.8722943 Z M66.8261719,76.8171814 C66.8261719,76.9120986 66.8269348,77.0070143 66.8284607,77.1019315 C66.8299866,77.1968487 66.8353271,77.2887027 66.8444824,77.3774962 L69.3759155,75.4990637 C69.3301389,75.3429096 69.2721561,75.200536 69.2019653,75.0719385 C69.1317746,74.943341 69.0478521,74.8323508 68.9501953,74.7389645 C68.8525386,74.6455782 68.7411505,74.5728605 68.6160278,74.5208091 C68.4909051,74.4687578 68.3505257,74.4427325 68.1948853,74.4427325 C67.9873647,74.4427325 67.7989205,74.4932522 67.6295471,74.5942931 C67.4601737,74.6953339 67.3159796,74.8461275 67.1969604,75.0466784 C67.0779413,75.2472292 66.9863895,75.4952349 66.9223022,75.790703 C66.858215,76.086171 66.8261719,76.4283271 66.8261719,76.8171814 Z M75.5236816,76.8447378 C75.5236816,77.3040146 75.4779057,77.7227156 75.3863525,78.1008534 C75.2947993,78.4789913 75.1559458,78.803542 74.9697876,79.0745152 C74.7836294,79.3454885 74.5524611,79.5552218 74.2762756,79.7037212 C74.0000902,79.8522207 73.6758441,79.9264693 73.3035278,79.9264693 C72.9830917,79.9264693 72.6916517,79.8659988 72.4291992,79.7450559 C72.1667467,79.6241131 71.9424448,79.4381088 71.7562866,79.1870375 C71.5701285,78.9359662 71.4266973,78.6160082 71.3259888,78.2271539 C71.2252803,77.8382996 71.1749268,77.3774988 71.1749268,76.8447378 C71.1749268,76.3854611 71.2214656,75.9659946 71.3145447,75.5863259 C71.4076238,75.2066571 71.5464773,74.8813409 71.7311096,74.6103677 C71.9157419,74.3393944 72.1469102,74.1296612 72.4246216,73.9811617 C72.7023329,73.8326622 73.025816,73.7584136 73.3950806,73.7584136 C73.7155167,73.7584136 74.0069567,73.8188841 74.2694092,73.939827 C74.5318617,74.0607698 74.7561636,74.2475396 74.9423218,74.5001418 C75.1284799,74.752744 75.2719111,75.0734674 75.3726196,75.4623218 C75.4733281,75.8511761 75.5236816,76.3119768 75.5236816,76.8447378 Z M74.7180176,76.8722943 C74.7180176,76.7681916 74.7142029,76.6648558 74.7065735,76.562284 C74.6989441,76.4597122 74.6905518,76.3594383 74.6813965,76.2614593 L72.1499634,78.1490772 C72.19574,78.3082932 72.2537228,78.4552595 72.3239136,78.5899807 C72.3941044,78.7247019 72.4787898,78.8402848 72.5779724,78.9367329 C72.677155,79.033181 72.7900689,79.1081951 72.9167175,79.1617774 C73.0433661,79.2153597 73.1875602,79.2421504 73.3493042,79.2421504 C73.5568248,79.2421504 73.7452689,79.1916307 73.9146423,79.0905899 C74.0840157,78.989549 74.2282099,78.8395208 74.347229,78.6405009 C74.4662482,78.441481 74.5578,78.1942407 74.6218872,77.8987727 C74.6859744,77.6033046 74.7180176,77.2611486 74.7180176,76.8722943 Z M71.9805908,76.8171814 C71.9805908,76.9120986 71.9813538,77.0070143 71.9828796,77.1019315 C71.9844055,77.1968487 71.989746,77.2887027 71.9989014,77.3774962 L74.5303345,75.4990637 C74.4845579,75.3429096 74.4265751,75.200536 74.3563843,75.0719385 C74.2861935,74.943341 74.202271,74.8323508 74.1046143,74.7389645 C74.0069575,74.6455782 73.8955695,74.5728605 73.7704468,74.5208091 C73.6453241,74.4687578 73.5049446,74.4427325 73.3493042,74.4427325 C73.1417836,74.4427325 72.9533395,74.4932522 72.7839661,74.5942931 C72.6145927,74.6953339 72.4703985,74.8461275 72.3513794,75.0466784 C72.2323602,75.2472292 72.1408084,75.4952349 72.0767212,75.790703 C72.012634,76.086171 71.9805908,76.4283271 71.9805908,76.8171814 Z M80.6781006,76.8447378 C80.6781006,77.3040146 80.6323247,77.7227156 80.5407715,78.1008534 C80.4492183,78.4789913 80.3103647,78.803542 80.1242065,79.0745152 C79.9380484,79.3454885 79.70688,79.5552218 79.4306946,79.7037212 C79.1545091,79.8522207 78.8302631,79.9264693 78.4579468,79.9264693 C78.1375106,79.9264693 77.8460706,79.8659988 77.5836182,79.7450559 C77.3211657,79.6241131 77.0968637,79.4381088 76.9107056,79.1870375 C76.7245474,78.9359662 76.5811162,78.6160082 76.4804077,78.2271539 C76.3796992,77.8382996 76.3293457,77.3774988 76.3293457,76.8447378 C76.3293457,76.3854611 76.3758845,75.9659946 76.4689636,75.5863259 C76.5620427,75.2066571 76.7008963,74.8813409 76.8855286,74.6103677 C77.0701608,74.3393944 77.3013292,74.1296612 77.5790405,73.9811617 C77.8567519,73.8326622 78.180235,73.7584136 78.5494995,73.7584136 C78.8699357,73.7584136 79.1613756,73.8188841 79.4238281,73.939827 C79.6862806,74.0607698 79.9105826,74.2475396 80.0967407,74.5001418 C80.2828989,74.752744 80.4263301,75.0734674 80.5270386,75.4623218 C80.6277471,75.8511761 80.6781006,76.3119768 80.6781006,76.8447378 Z M79.8724365,76.8722943 C79.8724365,76.7681916 79.8686219,76.6648558 79.8609924,76.562284 C79.853363,76.4597122 79.8449707,76.3594383 79.8358154,76.2614593 L77.3043823,78.1490772 C77.3501589,78.3082932 77.4081417,78.4552595 77.4783325,78.5899807 C77.5485233,78.7247019 77.6332087,78.8402848 77.7323914,78.9367329 C77.831574,79.033181 77.9444879,79.1081951 78.0711365,79.1617774 C78.1977851,79.2153597 78.3419792,79.2421504 78.5037231,79.2421504 C78.7112437,79.2421504 78.8996879,79.1916307 79.0690613,79.0905899 C79.2384347,78.989549 79.3826288,78.8395208 79.5016479,78.6405009 C79.6206671,78.441481 79.7122189,78.1942407 79.7763062,77.8987727 C79.8403934,77.6033046 79.8724365,77.2611486 79.8724365,76.8722943 Z M77.1350098,76.8171814 C77.1350098,76.9120986 77.1357727,77.0070143 77.1372986,77.1019315 C77.1388245,77.1968487 77.144165,77.2887027 77.1533203,77.3774962 L79.6847534,75.4990637 C79.6389768,75.3429096 79.580994,75.200536 79.5108032,75.0719385 C79.4406124,74.943341 79.3566899,74.8323508 79.2590332,74.7389645 C79.1613765,74.6455782 79.0499884,74.5728605 78.9248657,74.5208091 C78.799743,74.4687578 78.6593636,74.4427325 78.5037231,74.4427325 C78.2962026,74.4427325 78.1077584,74.4932522 77.938385,74.5942931 C77.7690116,74.6953339 77.6248175,74.8461275 77.5057983,75.0466784 C77.3867792,75.2472292 77.2952274,75.4952349 77.2311401,75.790703 C77.1670529,76.086171 77.1350098,76.4283271 77.1350098,76.8171814 Z" id="localhost:4000" fill="#F7F1F1"></path>
            <path d="M20.5835,25.839 C20.2685,25.587 18.7145,26.868 17.7065,28.884 C17.8745,28.989 18.0215,29.031 18.1685,29.031 C18.6725,29.031 19.3445,28.401 19.7645,27.834 C20.3735,27.015 20.8145,26.028 20.5835,25.839 Z M22.1585,26.679 C22.1585,27.939 20.7515,30.144 18.9035,30.144 C18.3995,30.144 17.8955,29.997 17.4125,29.682 C17.2865,30.102 17.2235,30.543 17.2235,30.921 C17.2235,31.845 17.6015,32.496 18.2315,32.496 C19.8275,32.496 21.2345,30.942 22.0955,29.64 C22.3265,29.304 22.5995,29.262 22.7675,29.682 C22.8305,29.871 22.8515,30.48 22.4735,31.047 C21.5915,32.328 19.9115,33.315 18.2735,33.336 C16.3205,33.357 15.2495,32.076 15.2495,30.396 C15.2495,29.64 15.4595,28.821 15.9005,27.981 C16.9925,25.755 18.6935,24.642 19.9115,24.642 C20.2055,24.642 20.4365,24.684 20.6465,24.81 C21.2345,25.146 21.6545,25.482 21.9485,25.902 C22.0745,26.091 22.1585,26.406 22.1585,26.679 Z M24.7205,27.33 C24.1955,29.409 23.9855,30.249 23.7965,31.362 C25.3085,29.031 27.5975,26.028 28.8365,24.747 C29.2985,24.306 29.5505,24.39 29.6135,24.894 C29.6765,25.356 29.4455,25.923 28.7315,26.784 C26.8205,29.073 25.3925,30.753 23.8805,33.147 C23.7335,33.378 23.5025,33.546 23.1875,33.399 C22.3265,33 21.9695,32.517 22.0325,31.404 C22.1165,29.955 22.6625,27.036 23.3975,24.852 C23.5235,24.474 23.8175,24.369 24.1535,24.642 C24.6365,25.062 24.8675,25.566 24.8675,26.196 C24.8675,26.532 24.8255,26.91 24.7205,27.33 Z M28.8365,28.023 C30.5165,25.608 32.2385,24.621 33.3095,24.621 C34.0655,24.621 34.5275,24.999 34.7165,25.545 L35.1155,24.894 C35.3675,24.474 35.7245,24.453 35.9765,24.747 C36.3335,25.167 36.5225,26.091 35.9765,27.183 C35.4305,28.338 33.6665,30.627 33.6665,32.034 C33.6665,32.349 33.7505,32.538 33.9605,32.538 C34.7165,32.538 35.7665,31.11 36.4595,29.745 C36.6905,29.325 36.8795,29.304 37.0895,29.745 C37.1735,29.934 37.2995,30.501 37.0055,31.11 C36.4595,32.265 35.1155,33.378 33.8345,33.378 C32.7845,33.378 32.1755,32.832 32.0075,32.055 C31.3985,32.643 30.4535,33.294 29.6135,33.294 C28.3745,33.294 27.7025,32.391 27.7025,31.152 C27.7025,30.249 28.0805,29.073 28.8365,28.023 Z M29.8865,32.37 C30.5795,32.37 31.5455,31.089 32.5745,29.325 C33.3935,27.897 33.7715,26.868 33.7715,26.322 C33.7715,26.07 33.7295,25.923 33.5195,25.923 C33.0995,25.923 31.6505,27.246 30.5795,28.968 C29.9495,29.955 29.5925,31.068 29.5925,31.74 C29.5925,32.118 29.6765,32.37 29.8865,32.37 Z M43.5785,21.744 C43.5785,22.038 43.5575,22.269 43.4525,22.626 C42.8015,25.125 40.5125,27.603 38.6645,28.842 C38.2445,29.913 37.9715,30.858 37.9715,31.593 C37.9715,32.097 38.0975,32.454 38.3705,32.454 C39.3365,32.454 40.5545,31.047 41.3525,29.535 C41.6255,29.01 42.0875,29.01 42.2345,29.556 C42.3185,29.871 42.2975,30.354 42.0245,30.921 C41.7095,31.551 40.1555,33.273 38.3915,33.273 C37.1105,33.273 36.3125,32.538 36.3125,31.089 C36.3125,30.732 36.3545,30.312 36.4595,29.892 C37.2785,26.406 39.6515,22.521 41.7095,20.358 C42.1085,19.959 42.4865,19.833 42.8855,20.211 C43.3475,20.61 43.5785,21.198 43.5785,21.744 Z M42.4025,22.269 C42.3185,22.227 41.7725,23.046 41.0585,24.285 C40.5125,25.209 39.5885,26.784 39.4415,27.141 C40.3445,26.259 41.0585,25.293 41.5415,24.474 C42.2555,23.277 42.5285,22.353 42.4025,22.269 Z M49.8785,31.11 C49.2695,32.307 47.9045,33.378 46.6025,33.378 C45.3635,33.378 44.7335,32.769 44.6495,31.824 C43.9355,32.622 42.9905,33.273 41.9195,33.273 C40.8485,33.273 40.4285,32.475 40.4285,31.572 C40.4285,31.11 40.5125,30.627 40.7015,30.123 C41.1635,28.8 42.2345,26.7 43.5365,24.873 C43.8095,24.516 44.1875,24.558 44.4395,24.873 C44.6705,25.167 44.7545,25.524 44.7545,25.839 C44.7545,26.7 43.2215,29.136 42.4865,30.753 C42.1085,31.593 42.0455,32.37 42.5075,32.37 C43.0535,32.37 44.1665,30.942 45.2375,29.262 C46.4765,27.246 47.0225,25.818 47.7785,24.852 C48.0725,24.453 48.4085,24.369 48.6605,24.726 C48.8705,25.02 48.9755,25.356 48.9755,25.818 C48.9755,26.532 48.5345,27.456 47.7995,28.674 C47.1905,29.661 46.3715,31.089 46.3715,31.908 C46.3715,32.286 46.4975,32.496 46.7705,32.496 C47.4635,32.496 48.5345,31.047 49.2905,29.724 C49.5005,29.367 49.8575,29.304 50.0255,29.703 C50.1095,29.892 50.1935,30.501 49.8785,31.11 Z M50.2775,28.023 C51.9575,25.608 53.6795,24.621 54.7505,24.621 C55.5065,24.621 55.9685,24.999 56.1575,25.545 L56.5565,24.894 C56.8085,24.474 57.1655,24.453 57.4175,24.747 C57.7745,25.167 57.9635,26.091 57.4175,27.183 C56.8715,28.338 55.1075,30.627 55.1075,32.034 C55.1075,32.349 55.1915,32.538 55.4015,32.538 C56.1575,32.538 57.2075,31.11 57.9005,29.745 C58.1315,29.325 58.3205,29.304 58.5305,29.745 C58.6145,29.934 58.7405,30.501 58.4465,31.11 C57.9005,32.265 56.5565,33.378 55.2755,33.378 C54.2255,33.378 53.6165,32.832 53.4485,32.055 C52.8395,32.643 51.8945,33.294 51.0545,33.294 C49.8155,33.294 49.1435,32.391 49.1435,31.152 C49.1435,30.249 49.5215,29.073 50.2775,28.023 Z M51.3275,32.37 C52.0205,32.37 52.9865,31.089 54.0155,29.325 C54.8345,27.897 55.2125,26.868 55.2125,26.322 C55.2125,26.07 55.1705,25.923 54.9605,25.923 C54.5405,25.923 53.0915,27.246 52.0205,28.968 C51.3905,29.955 51.0335,31.068 51.0335,31.74 C51.0335,32.118 51.1175,32.37 51.3275,32.37 Z M57.6695,30.963 C57.6695,30.501 57.7955,29.913 58.0895,29.22 C58.5095,28.191 59.3075,26.532 60.1475,25.02 C59.4965,24.936 59.1185,24.705 58.9505,24.453 C58.6565,24.012 58.8665,23.802 59.3495,23.823 C59.8325,23.844 60.3995,23.823 60.8615,23.781 C61.5125,22.647 61.9535,21.954 62.4365,21.261 C62.7515,20.799 63.0035,20.82 63.2345,21.219 C63.3815,21.471 63.4655,21.828 63.4655,22.08 C63.4655,22.458 63.3815,22.941 63.1295,23.529 C63.7805,23.613 64.1375,23.949 64.2845,24.201 C64.4945,24.579 64.3475,24.831 63.8435,24.768 C63.4655,24.726 62.9195,24.768 62.4575,24.831 C61.6595,26.196 60.4625,28.275 59.7275,29.871 C59.4755,30.438 59.3495,30.984 59.3495,31.446 C59.3495,32.076 59.5595,32.517 59.9165,32.517 C60.7355,32.517 61.8275,31.194 62.5625,29.619 C62.7935,29.115 63.2765,29.073 63.4235,29.64 C63.5285,30.081 63.4445,30.396 63.2135,30.879 C62.9195,31.509 61.5125,33.315 59.7485,33.315 C58.6355,33.315 57.6695,32.412 57.6695,30.963 Z M76.5275,30.375 C76.5275,30.627 76.4645,30.921 76.3385,31.173 C75.7715,32.454 74.2175,33.378 72.9995,33.378 C71.6555,33.378 70.9205,32.433 70.9205,31.194 C70.9205,30.123 72.0125,28.191 73.2095,26.742 C72.5795,27.015 72.0335,27.12 71.5505,27.141 C70.9835,28.023 70.1645,28.653 69.0515,28.779 C68.5685,30.795 66.5945,33.273 64.8935,33.273 C64.2005,33.273 63.4445,33 62.8565,32.223 C62.4785,31.677 62.2895,31.068 62.2895,30.396 C62.2895,29.472 62.6255,28.422 63.1505,27.456 C63.9485,26.007 65.3345,24.831 66.6365,24.726 C67.3715,24.684 67.7495,24.894 68.2115,25.503 C68.3165,25.629 68.4215,25.713 68.5475,25.839 C68.9675,26.28 69.2195,26.826 69.2195,27.939 C69.5975,27.792 69.9545,27.477 70.3115,26.91 C69.9335,26.7 69.7865,26.406 69.7865,26.028 C69.7865,24.915 71.1935,23.382 71.8865,23.361 C72.3485,23.361 72.5165,23.655 72.5165,24.096 C72.5165,24.558 72.3485,25.23 72.1175,25.86 C72.6845,25.713 73.2935,25.377 73.9235,24.957 C74.2805,24.705 74.5535,24.642 74.8475,24.936 C75.2045,25.335 75.4355,25.818 75.4355,26.364 C75.4355,26.616 75.3305,26.931 75.0785,27.204 C74.1965,28.233 73.1885,29.64 72.8105,30.732 C72.7055,31.047 72.6425,31.362 72.6425,31.677 C72.6425,32.202 72.8105,32.538 73.1255,32.538 C73.8605,32.538 75.0575,31.236 75.6875,29.808 C75.8765,29.388 76.1705,29.346 76.4015,29.766 C76.5065,29.955 76.5275,30.102 76.5275,30.375 Z M67.6235,27.729 C67.8335,27.246 67.9175,26.742 67.9175,26.469 C67.9175,26.154 67.7495,26.028 67.6025,26.028 C67.4765,26.028 67.2875,26.196 67.2875,26.532 C67.2875,26.91 67.3925,27.456 67.6235,27.729 Z M63.9275,31.32 C63.9275,31.845 64.0535,32.202 64.3055,32.202 C64.8095,32.202 65.8175,31.341 66.5945,30.018 C66.8885,29.514 67.1405,28.947 67.2665,28.422 C66.5525,28.002 66.1745,27.393 66.0275,26.784 C65.6075,27.204 65.1875,27.75 64.8095,28.38 C64.2845,29.367 63.9275,30.564 63.9275,31.32 Z" id="evaluator" fill="#F3F1F1"></path>
        </g>
    </g>
</svg>